<svg width="25" height="25" viewBox="0 0 25 25" fill="none" xmlns="http://www.w3.org/2000/svg">
<path d="M22.9404 6.63205C22.8658 6.39934 22.7238 6.19403 22.5324 6.04214C22.3409 5.89026 22.1087 5.79865 21.8651 5.77893L18.3757 5.48361L17.0145 2.31018C16.9184 2.0877 16.7593 1.89822 16.5568 1.76509C16.3543 1.63197 16.1173 1.56104 15.875 1.56104C15.6326 1.56104 15.3956 1.63197 15.1931 1.76509C14.9906 1.89822 14.8315 2.0877 14.7354 2.31018L13.3742 5.48455L9.88388 5.77893C9.64152 5.79839 9.41035 5.8892 9.21954 6.03989C9.02872 6.19058 8.88681 6.39441 8.8117 6.62565C8.73659 6.8569 8.73165 7.10521 8.79749 7.33927C8.86334 7.57332 8.99703 7.78264 9.18169 7.9408L11.8217 10.1908L11.0314 13.5405C10.9758 13.7753 10.9906 14.0212 11.074 14.2477C11.1574 14.4741 11.3056 14.6709 11.5001 14.8136C11.697 14.9582 11.9321 15.0415 12.176 15.0532C12.42 15.0648 12.6619 15.0043 12.8717 14.8792L15.8717 13.098L18.8717 14.8792C19.0814 15.0043 19.3234 15.0648 19.5674 15.0532C19.8113 15.0415 20.0464 14.9582 20.2433 14.8136C20.4379 14.671 20.5862 14.4742 20.6695 14.2477C20.7529 14.0213 20.7677 13.7753 20.712 13.5405L19.9217 10.1908L22.5608 7.9408C22.7465 7.78474 22.8817 7.57706 22.9493 7.34408C23.0169 7.11109 23.0138 6.86328 22.9404 6.63205ZM18.8286 9.1633C18.6558 9.30966 18.527 9.50105 18.4565 9.7162C18.386 9.93135 18.3766 10.1618 18.4292 10.3821L19.1145 13.2883L16.5101 11.7405C16.3179 11.6259 16.0983 11.5654 15.8745 11.5654C15.6507 11.5654 15.4311 11.6259 15.2389 11.7405L12.6345 13.2789L13.3198 10.3727C13.3732 10.1526 13.3642 9.92194 13.2938 9.70667C13.2234 9.49139 13.0945 9.29999 12.9214 9.15393L10.647 7.2208L13.6554 6.9658C13.8787 6.94707 14.0927 6.86788 14.2744 6.73674C14.4561 6.6056 14.5986 6.42745 14.6867 6.22143L15.8745 3.45768L17.0595 6.22143C17.1478 6.42733 17.2903 6.60537 17.472 6.73649C17.6536 6.8676 17.8675 6.94687 18.0908 6.9658L21.0992 7.2208L18.8286 9.1633ZM8.53013 11.8408L3.28013 17.0908C3.1394 17.2315 2.94852 17.3106 2.7495 17.3106C2.55048 17.3106 2.35961 17.2315 2.21888 17.0908C2.07815 16.9501 1.99908 16.7592 1.99908 16.5602C1.99908 16.3612 2.07815 16.1703 2.21888 16.0296L7.46888 10.7796C7.60961 10.6388 7.80048 10.5598 7.9995 10.5598C8.19852 10.5598 8.3894 10.6388 8.53013 10.7796C8.67086 10.9203 8.74992 11.1112 8.74992 11.3102C8.74992 11.5092 8.67086 11.7001 8.53013 11.8408ZM10.0301 17.0908L4.78013 22.3408C4.71044 22.4105 4.62772 22.4658 4.53667 22.5035C4.44563 22.5412 4.34805 22.5606 4.2495 22.5606C4.15096 22.5606 4.05337 22.5412 3.96233 22.5035C3.87128 22.4658 3.78856 22.4105 3.71888 22.3408C3.64919 22.2711 3.59392 22.1884 3.55621 22.0973C3.51849 22.0063 3.49908 21.9087 3.49908 21.8102C3.49908 21.7116 3.51849 21.614 3.55621 21.523C3.59392 21.432 3.64919 21.3492 3.71888 21.2796L8.96888 16.0296C9.10961 15.8888 9.30048 15.8098 9.4995 15.8098C9.69852 15.8098 9.8894 15.8888 10.0301 16.0296C10.1709 16.1703 10.2499 16.3612 10.2499 16.5602C10.2499 16.7592 10.1709 16.9501 10.0301 17.0908ZM16.7801 16.0296C16.8499 16.0992 16.9052 16.1819 16.9429 16.273C16.9807 16.364 17.0001 16.4616 17.0001 16.5602C17.0001 16.6587 16.9807 16.7563 16.9429 16.8474C16.9052 16.9384 16.8499 17.0211 16.7801 17.0908L11.5301 22.3408C11.4604 22.4105 11.3777 22.4658 11.2867 22.5035C11.1956 22.5412 11.098 22.5606 10.9995 22.5606C10.901 22.5606 10.8034 22.5412 10.7123 22.5035C10.6213 22.4658 10.5386 22.4105 10.4689 22.3408C10.3992 22.2711 10.3439 22.1884 10.3062 22.0973C10.2685 22.0063 10.2491 21.9087 10.2491 21.8102C10.2491 21.7116 10.2685 21.614 10.3062 21.523C10.3439 21.432 10.3992 21.3492 10.4689 21.2796L15.7189 16.0296C15.7885 15.9598 15.8712 15.9045 15.9623 15.8668C16.0533 15.829 16.1509 15.8096 16.2495 15.8096C16.3481 15.8096 16.4457 15.829 16.5367 15.8668C16.6278 15.9045 16.7105 15.9598 16.7801 16.0296Z" fill="white"/>
</svg>
