<svg width="35" height="35" viewBox="0 0 35 35" fill="none" xmlns="http://www.w3.org/2000/svg">
<mask id="mask0_1_188" style="mask-type:luminance" maskUnits="userSpaceOnUse" x="0" y="0" width="35" height="35">
<path d="M0.217896 0.97998H34.2179V34.98H0.217896V0.97998Z" fill="white"/>
</mask>
<g mask="url(#mask0_1_188)">
<mask id="mask1_1_188" style="mask-type:luminance" maskUnits="userSpaceOnUse" x="0" y="0" width="35" height="35">
<path d="M34.2179 0.97998H0.217896V34.98H34.2179V0.97998Z" fill="white"/>
</mask>
<g mask="url(#mask1_1_188)">
<path d="M17.2179 7.78003H22.8846V8.91333H17.2179V7.78003Z" fill="white"/>
<path d="M17.2179 10.0466H22.8846V11.1799H17.2179V10.0466Z" fill="white"/>
<path d="M17.2179 12.3132H22.8846V13.4465H17.2179V12.3132Z" fill="white"/>
<path d="M17.2179 14.5801H22.8846V15.7134H17.2179V14.5801Z" fill="white"/>
<path d="M10.9123 8.80978C11.3274 8.94718 11.7758 8.94718 12.1909 8.80978C12.3977 9.53868 13.0607 10.0423 13.8186 10.0466H14.3853C14.6984 10.0466 14.9519 10.3001 14.9519 10.6132V12.3132H16.0853V10.6132C16.0853 9.67468 15.3238 8.91318 14.3853 8.91318H13.8186C13.5055 8.91318 13.2519 8.65958 13.2519 8.34658V8.12978C13.6153 7.72038 13.8165 7.19338 13.8186 6.64658V5.51318C13.8186 4.26158 12.8036 3.24658 11.5519 3.24658C10.3003 3.24658 9.28532 4.26158 9.28532 5.51318V6.64658C9.28742 7.19338 9.48862 7.72108 9.85192 8.12978V8.34658C9.85192 8.65958 9.59842 8.91318 9.28532 8.91318H8.71862C7.78012 8.91318 7.01862 9.67468 7.01862 10.6132V12.3132H8.15192V10.6132C8.15192 10.3001 8.40552 10.0466 8.71862 10.0466H9.28532C10.0425 10.043 10.7055 9.53868 10.9123 8.80978ZM10.4179 5.51318C10.4179 4.88708 10.9251 4.37988 11.5512 4.37988C12.1774 4.37988 12.6846 4.88708 12.6846 5.51318V6.64658C12.6846 7.27268 12.1774 7.77988 11.5512 7.77988C10.9251 7.77988 10.4179 7.27268 10.4179 6.64658V5.51318Z" fill="white"/>
<path d="M17.7846 6.64658H22.3179C22.631 6.64658 22.8846 6.39298 22.8846 6.07988V3.81318C22.8846 3.50008 22.631 3.24658 22.3179 3.24658H17.7846C17.4715 3.24658 17.2179 3.50008 17.2179 3.81318V6.07988C17.2179 6.39298 17.4715 6.64658 17.7846 6.64658ZM18.3512 4.37988H21.7512V5.51318H18.3512V4.37988Z" fill="white"/>
<path d="M34.2179 15.7133C34.2158 13.8362 32.695 12.3155 30.8179 12.3133H27.4179V3.81328C27.4179 3.50018 27.1643 3.24668 26.8512 3.24668H25.1512V1.54668C25.1512 1.23358 24.8976 0.97998 24.5846 0.97998H5.3179C5.0048 0.97998 4.7512 1.23358 4.7512 1.54668V14.0133H3.0512C1.4872 14.0155 0.219996 15.2827 0.217896 16.8467V32.1467C0.219996 33.7107 1.4872 34.9779 3.0512 34.98H26.8512C28.3649 34.975 29.6074 33.7801 29.6718 32.2671L34.1974 15.8635C34.2108 15.8146 34.2179 15.7643 34.2179 15.7133ZM26.2846 4.37998V16.8467H25.1512V4.37998H26.2846ZM5.8846 2.11328H24.0179V16.8467H12.919L10.2514 14.1791C10.1452 14.0728 10.0014 14.0133 9.8505 14.0133H5.8839L5.8846 2.11328ZM28.5512 32.1467C28.5512 33.0852 27.7898 33.8467 26.8512 33.8467H3.0512C2.1127 33.8467 1.3512 33.0852 1.3512 32.1467V16.8467C1.3512 15.9081 2.1127 15.1467 3.0512 15.1467H9.61679L12.2844 17.8143C12.3906 17.9205 12.5344 17.98 12.6853 17.98H26.8519C27.7905 17.98 28.5519 18.7415 28.5519 19.68L28.5512 32.1467ZM29.6846 27.9618V19.68C29.6831 18.3342 28.7361 17.1746 27.4179 16.9033V13.4467H30.8179C32.0419 13.4467 33.0456 14.4171 33.0846 15.6411L29.6846 27.9618Z" fill="white"/>
<path d="M20.6179 23.0799H17.7846V20.2466C17.7846 19.9335 17.531 19.6799 17.2179 19.6799H12.6846C12.3715 19.6799 12.1179 19.9335 12.1179 20.2466V23.0799H9.2846C8.9715 23.0799 8.7179 23.3335 8.7179 23.6466V28.1799C8.7179 28.493 8.9715 28.7466 9.2846 28.7466H12.1179V31.5799C12.1179 31.893 12.3715 32.1466 12.6846 32.1466H17.2179C17.531 32.1466 17.7846 31.893 17.7846 31.5799V28.7466H20.6179C20.931 28.7466 21.1846 28.493 21.1846 28.1799V23.6466C21.1846 23.3335 20.931 23.0799 20.6179 23.0799ZM20.0512 27.6132H17.2179C16.9048 27.6132 16.6512 27.8668 16.6512 28.1799V31.0132H13.2512V28.1799C13.2512 27.8668 12.9976 27.6132 12.6846 27.6132H9.8512V24.2132H12.6846C12.9976 24.2132 13.2512 23.9597 13.2512 23.6466V20.8132H16.6512V23.6466C16.6512 23.9597 16.9048 24.2132 17.2179 24.2132H20.0512V27.6132Z" fill="white"/>
</g>
</g>
</svg>
