<svg width="25" height="25" viewBox="0 0 25 25" fill="none" xmlns="http://www.w3.org/2000/svg">
<path d="M22.2495 6.06006H19.9995V5.31006C19.9995 4.91223 19.8415 4.5307 19.5602 4.2494C19.2789 3.96809 18.8973 3.81006 18.4995 3.81006H6.49951C6.10169 3.81006 5.72016 3.96809 5.43885 4.2494C5.15755 4.5307 4.99951 4.91223 4.99951 5.31006V6.06006H2.74951C2.35169 6.06006 1.97016 6.21809 1.68885 6.4994C1.40755 6.7807 1.24951 7.16223 1.24951 7.56006V9.06006C1.24951 10.0546 1.6446 11.0084 2.34786 11.7117C2.69608 12.0599 3.10948 12.3362 3.56445 12.5246C4.01942 12.7131 4.50705 12.8101 4.99951 12.8101H5.3417C5.78349 14.2101 6.62585 15.4501 7.76467 16.3766C8.90349 17.3032 10.2888 17.8757 11.7495 18.0235V20.3101H9.49951C9.3006 20.3101 9.10983 20.3891 8.96918 20.5297C8.82853 20.6704 8.74951 20.8611 8.74951 21.0601C8.74951 21.259 8.82853 21.4497 8.96918 21.5904C9.10983 21.731 9.3006 21.8101 9.49951 21.8101H15.4995C15.6984 21.8101 15.8892 21.731 16.0298 21.5904C16.1705 21.4497 16.2495 21.259 16.2495 21.0601C16.2495 20.8611 16.1705 20.6704 16.0298 20.5297C15.8892 20.3891 15.6984 20.3101 15.4995 20.3101H13.2495V18.0207C16.2439 17.7179 18.7283 15.6169 19.632 12.8101H19.9995C20.9941 12.8101 21.9479 12.415 22.6512 11.7117C23.3544 11.0084 23.7495 10.0546 23.7495 9.06006V7.56006C23.7495 7.16223 23.5915 6.7807 23.3102 6.4994C23.0289 6.21809 22.6473 6.06006 22.2495 6.06006ZM4.99951 11.3101C4.40277 11.3101 3.83048 11.073 3.40852 10.651C2.98656 10.2291 2.74951 9.6568 2.74951 9.06006V7.56006H4.99951V10.5601C4.99951 10.8101 5.0117 11.0601 5.03607 11.3101H4.99951ZM18.4995 10.4757C18.4995 13.8057 15.8286 16.5357 12.5455 16.5601H12.4995C10.9082 16.5601 9.38209 15.9279 8.25687 14.8027C7.13165 13.6775 6.49951 12.1514 6.49951 10.5601V5.31006H18.4995V10.4757ZM22.2495 9.06006C22.2495 9.6568 22.0125 10.2291 21.5905 10.651C21.1685 11.073 20.5962 11.3101 19.9995 11.3101H19.9526C19.9834 11.033 19.9991 10.7545 19.9995 10.4757V7.56006H22.2495V9.06006Z" fill="white"/>
</svg>
