<svg width="34" height="37" viewBox="0 0 34 37" fill="none" xmlns="http://www.w3.org/2000/svg">
<path d="M5.16545 7.44909C5.08745 7.27409 4.94445 7.13809 4.76845 7.07309C4.59445 7.00709 4.39945 7.01709 4.23045 7.10109L0.978451 8.69909C0.668451 8.85209 0.513451 9.21409 0.612451 9.55209C1.59945 12.9121 3.13445 15.0111 4.62945 16.3221C3.28445 19.4911 3.24245 23.2451 4.56645 26.4971C6.34545 30.8651 10.3705 34.3371 15.3335 35.7871C16.4285 36.1061 17.4365 36.2661 18.3525 36.2661C19.6595 36.2661 20.7815 35.9401 21.7045 35.2911C23.6765 33.9021 24.2924 31.3191 24.6105 29.2241C24.7145 28.5331 24.7905 27.8951 24.8525 27.2721H32.6474C32.8895 27.2721 33.1135 27.1441 33.2405 26.9321C33.3685 26.7211 33.3795 26.4571 33.2715 26.2361L25.9805 11.2501C25.8625 11.0071 25.6205 10.8541 25.3565 10.8541C25.0925 10.8541 24.8514 11.0071 24.7334 11.2501L22.6155 15.5981C21.3385 13.6981 19.6275 12.2981 17.7365 11.6041C18.4844 10.9191 19.4995 10.3771 20.8625 10.0411C21.0485 9.99509 21.2085 9.87309 21.3045 9.70209C21.4005 9.53209 21.4235 9.32809 21.3685 9.14009L20.1325 4.90609C20.0354 4.57509 19.7275 4.36309 19.3865 4.40009C19.2535 4.41509 16.9515 4.72209 14.5285 6.93409C14.3885 4.58009 15.2465 2.58609 15.2565 2.56309C15.3325 2.38709 15.3395 2.18709 15.2705 2.00809C15.2025 1.82909 15.0685 1.68409 14.8965 1.60909L12.4205 0.51409C12.1105 0.37709 11.7455 0.48909 11.5605 0.78209L10.1395 3.02709L9.71945 1.63109C9.60945 1.26209 9.23245 1.04809 8.86845 1.15209L5.87645 1.99909C5.66645 2.05809 5.49545 2.21509 5.41445 2.42209C5.33345 2.63009 5.35045 2.86409 5.46245 3.05609C6.56645 4.95609 6.47945 7.69109 6.27445 9.41409C5.55745 8.31109 5.17445 7.46909 5.16545 7.44909ZM25.3545 13.1711L31.5195 25.8401H19.1835L25.3545 13.1711ZM18.9775 5.94709L19.8255 8.84909C13.1045 10.9831 14.4205 18.0001 14.8615 20.3581C15.2765 22.5721 14.3725 25.1611 14.3645 25.1871C14.2335 25.5581 14.4195 25.9701 14.7805 26.1051C14.8595 26.1341 14.9405 26.1481 15.0195 26.1481C15.3045 26.1481 15.5715 25.9681 15.6755 25.6781C15.7185 25.5581 16.7205 22.6981 16.2325 20.0881C15.7695 17.6161 15.5395 14.8501 16.7705 12.7871C18.7994 13.3591 20.6395 14.9151 21.8865 17.0941L17.4335 26.2361C17.3245 26.4581 17.3365 26.7211 17.4645 26.9321C17.5905 27.1431 17.8155 27.2721 18.0575 27.2721H23.4525C23.3945 27.8251 23.3265 28.3931 23.2334 29.0041C22.9604 30.8151 22.4485 33.0311 20.9174 34.1101C19.7075 34.9621 17.9565 35.0641 15.7165 34.4101C11.1585 33.0791 7.47145 29.9151 5.85545 25.9461C4.73645 23.1971 4.73145 19.9241 5.78445 17.1961C7.52545 18.3271 8.98345 18.4771 9.10445 18.4881C9.48745 18.5231 9.82245 18.2311 9.85545 17.8381C9.88945 17.4451 9.60745 17.0981 9.22445 17.0611C9.02245 17.0421 4.37045 16.5141 2.13145 9.72309L4.21845 8.69609C4.99145 10.1701 7.13645 13.7281 10.5545 15.3371C10.7315 15.4211 10.9335 15.4251 11.1135 15.3481C11.2925 15.2711 11.4325 15.1211 11.4995 14.9331C11.6005 14.6521 11.6975 14.3671 11.7955 14.0791C12.1325 13.0881 12.4805 12.0621 13.0135 11.1181C15.1165 7.40009 17.8214 6.27309 18.9795 5.94809L18.9775 5.94709ZM7.06645 3.14809L8.58645 2.71709L9.24645 4.91109C9.32645 5.17609 9.54845 5.37109 9.81745 5.40909C10.0835 5.45109 10.3505 5.32309 10.4975 5.09009L12.4105 2.06909L13.7285 2.65109C13.3735 3.71709 12.8425 5.89209 13.2925 8.23609C12.7805 8.85509 12.2775 9.56209 11.8065 10.3951C11.2035 11.4591 10.8345 12.5501 10.4755 13.6051C10.4685 13.6271 10.4605 13.6501 10.4525 13.6721C9.25545 12.9641 8.24945 11.9811 7.44145 11.0041C7.67545 9.82909 8.27645 6.06809 7.06645 3.14609V3.14809Z" fill="white"/>
<path d="M24.6545 16.48H26.0485V22.375H24.6545V16.48Z" fill="white"/>
<path d="M24.6545 23.5261H26.0485V24.8011H24.6545V23.5261Z" fill="white"/>
</svg>
