<svg width="137" height="137" viewBox="0 0 137 137" fill="none" xmlns="http://www.w3.org/2000/svg">
<mask id="mask0_1_512" style="mask-type:luminance" maskUnits="userSpaceOnUse" x="0" y="0" width="137" height="137">
<path d="M136.229 0.580078H0.229492V136.58H136.229V0.580078Z" fill="white"/>
</mask>
<g mask="url(#mask0_1_512)">
<path d="M68.2308 136.251C105.604 136.251 135.901 105.955 135.901 68.5815C135.901 31.2088 105.604 0.912109 68.2308 0.912109C30.8581 0.912109 0.561401 31.2088 0.561401 68.5815C0.561401 105.955 30.8581 136.251 68.2308 136.251Z" fill="white" stroke="#B19369" stroke-width="1.34692" stroke-miterlimit="10"/>
<path d="M85.4486 42.4744L68.6761 35.1338C68.3923 35.0081 68.0667 35.0081 67.7803 35.1338L51.0076 42.4744C50.6016 42.6516 50.3373 43.0544 50.3373 43.4991V61.0513C50.3437 64.9955 52.2385 68.6981 55.4351 71.0114L67.0258 79.3702C67.7411 79.8893 68.7081 79.8893 69.4267 79.3702L81.0174 71.0114C84.2141 68.7013 86.1089 64.9955 86.1155 61.0513V43.4958C86.1155 43.0512 85.8513 42.6484 85.4453 42.4711L85.4486 42.4744ZM83.8819 61.0513C83.8754 64.2769 82.3258 67.306 79.7124 69.1976L68.2308 77.4792L56.7498 69.1976C54.1365 67.306 52.5833 64.2769 52.5801 61.0513V44.2274L68.2341 37.3766L83.8885 44.2274V61.0513H83.8819Z" fill="#B19369" stroke="#B19369" stroke-width="0.595" stroke-miterlimit="10"/>
<path d="M67.7829 40.0122L55.4834 45.3968C55.0774 45.574 54.8132 45.9769 54.8132 46.4215V61.0511C54.8164 63.5581 56.0215 65.9136 58.0549 67.3829L67.5737 74.2496C67.9634 74.5301 68.4924 74.5301 68.882 74.2496L78.4007 67.3829C80.4342 65.9136 81.6392 63.5581 81.6425 61.0511V46.4215C81.6425 45.9769 81.3783 45.574 80.9723 45.3968L68.6728 40.0122C68.389 39.8866 68.0634 39.8866 67.777 40.0122H67.7829ZM79.4129 47.153V61.0543C79.4096 62.8459 78.5492 64.5248 77.0989 65.572L68.2341 71.9684L59.3696 65.572C57.9195 64.5216 57.0592 62.8427 57.0559 61.0543V47.153L68.2374 42.2582L79.4194 47.153H79.4129Z" fill="#B19369" stroke="#B19369" stroke-width="0.595" stroke-miterlimit="10"/>
<path d="M43.9505 72.1588L41.5306 66.5069C41.015 65.3402 39.9194 64.541 38.653 64.4024C37.3866 64.2639 36.1428 64.8149 35.392 65.8429C34.6411 66.8711 34.4929 68.2206 35.0085 69.3878L39.3909 79.0255C39.9806 80.3305 40.8055 81.5166 41.8174 82.5281L48.7067 89.4209C48.3201 89.8335 48.101 90.3749 48.101 90.9418V99.8871C48.101 101.122 49.1031 102.123 50.3373 102.123H62.6371C63.8712 102.123 64.8734 101.122 64.8734 99.8871V90.9418C64.8734 89.708 63.8712 88.7056 62.6371 88.7056V86.6238C62.6725 83.9751 61.8089 81.3937 60.1848 79.2994C59.2343 78.0493 57.9389 77.1051 56.4598 76.5827C54.1042 75.5941 51.9388 74.2046 50.0601 72.4746C48.3137 71.0374 45.8356 70.9086 43.9505 72.1555V72.1588ZM62.6403 99.8871H50.3405V90.9418H62.6403V99.8871ZM58.4447 80.698C59.7466 82.396 60.4394 84.4844 60.404 86.6238V88.7056H51.159L43.4027 80.9491C42.5779 80.1278 41.9108 79.1608 41.4307 78.1009L37.0483 68.4626C36.8613 68.05 36.8968 67.5733 37.1417 67.1928C37.3866 66.8129 37.8087 66.5841 38.2599 66.5841C38.7916 66.5841 39.2717 66.8999 39.4811 67.3896L41.9817 73.2219C42.6455 74.7787 43.6026 76.193 44.8013 77.3856L49.9087 82.4928C50.1891 82.7831 50.6047 82.8988 50.9946 82.7988C51.3846 82.6988 51.6907 82.3928 51.7938 81.9998C51.8969 81.6101 51.7809 81.1943 51.4877 80.9138L46.3802 75.8066C45.8679 75.294 45.4038 74.7336 45.0011 74.1308C46.0741 73.3056 47.5757 73.3285 48.623 74.1922C50.7143 76.1093 53.1279 77.64 55.7573 78.7096C56.8271 79.1 57.7616 79.7924 58.4447 80.7013V80.698Z" fill="#B19369" stroke="#B19369" stroke-width="0.595" stroke-miterlimit="10"/>
<path d="M59.2858 94.2964H58.1676C57.549 94.2964 57.0495 94.7953 57.0495 95.4145C57.0495 96.033 57.549 96.5325 58.1676 96.5325H59.2858C59.9045 96.5325 60.404 96.033 60.404 95.4145C60.404 94.7953 59.9045 94.2964 59.2858 94.2964Z" fill="#B19369" stroke="#B19369" stroke-width="0.595" stroke-miterlimit="10"/>
<path d="M97.0681 79.0252L101.451 69.3875C101.989 68.2178 101.857 66.8512 101.102 65.8072C100.348 64.7631 99.0917 64.2088 97.8128 64.3539C96.5332 64.4989 95.4308 65.3238 94.932 66.5099L92.518 72.1389C90.6264 70.8953 88.1457 71.0339 86.4019 72.4743C84.5201 74.2011 82.3546 75.5938 80.0027 76.5831C78.5204 77.1048 77.2278 78.0523 76.2777 79.2991C74.6568 81.3934 73.7931 83.9781 73.8251 86.6268V88.7086C72.5907 88.7086 71.589 89.711 71.589 90.9448V99.8901C71.589 101.125 72.5907 102.126 73.8251 102.126H86.1246C87.3591 102.126 88.3614 101.125 88.3614 99.8901V90.9448C88.3614 90.3812 88.1424 89.8365 87.7553 89.4239L94.6449 82.5311C95.6597 81.5196 96.4816 80.3335 97.0713 79.0284L97.0681 79.0252ZM86.1188 99.8868H73.8186V90.9415H86.1188V99.8868ZM85.3034 88.7054H76.058V86.6235C76.026 84.4841 76.7158 82.3958 78.0176 80.6977C78.7009 79.7889 79.6319 79.0964 80.7016 78.7028C83.3314 77.6331 85.7448 76.1058 87.8358 74.1854C88.8799 73.3184 90.3884 73.2896 91.4646 74.1141C91.0586 74.7235 90.5943 75.2871 90.0791 75.803L84.9713 80.9102C84.5495 81.3483 84.5521 82.0479 84.9843 82.4762C85.4159 82.9051 86.1122 82.9149 86.5503 82.4893L91.6575 77.3821C92.8566 76.1862 93.8132 74.7719 94.4775 73.2184L96.9778 67.3828C97.1871 66.8931 97.6676 66.5773 98.1992 66.5773C98.6504 66.5773 99.0721 66.8061 99.3173 67.1866C99.5625 67.5665 99.5978 68.0432 99.4108 68.4558L95.0281 78.0941C94.5481 79.154 93.878 80.1178 93.0561 80.9429L85.3034 88.6988V88.7054Z" fill="#B19369" stroke="#B19369" stroke-width="0.595" stroke-miterlimit="10"/>
<path d="M78.2948 94.2964H77.1761C76.5575 94.2964 76.058 94.7953 76.058 95.4145C76.058 96.033 76.5575 96.5325 77.1761 96.5325H78.2948C78.9133 96.5325 79.4129 96.033 79.4129 95.4145C79.4129 94.7953 78.9133 94.2964 78.2948 94.2964Z" fill="#B19369" stroke="#B19369" stroke-width="0.595" stroke-miterlimit="10"/>
<path d="M62.1924 58.7406C61.6994 58.37 60.9969 58.4699 60.6263 58.9629C60.2558 59.4559 60.3556 60.1584 60.8487 60.529L65.3213 63.8835C65.5147 64.0284 65.7501 64.1058 65.9914 64.1058C66.0561 64.1058 66.1169 64.0994 66.1817 64.0897C66.4844 64.0381 66.7518 63.8641 66.9231 63.6063L75.8684 50.1884C76.0907 49.8565 76.1162 49.4311 75.939 49.0735C75.7618 48.7158 75.4074 48.4773 75.0079 48.4515C74.6084 48.4258 74.2279 48.6159 74.0056 48.9478L65.7174 61.3829L62.1924 58.7373V58.7406Z" fill="#B19369" stroke="#B19369" stroke-width="0.595" stroke-miterlimit="10"/>
</g>
</svg>
