<svg width="39" height="39" viewBox="0 0 39 39" fill="none" xmlns="http://www.w3.org/2000/svg">
<mask id="mask0_1_148" style="mask-type:luminance" maskUnits="userSpaceOnUse" x="0" y="0" width="39" height="39">
<path d="M0.781128 0.97998H38.7811V38.98H0.781128V0.97998Z" fill="white"/>
</mask>
<g mask="url(#mask0_1_148)">
<path d="M10.0614 29.9994L15.5046 27.6682C15.9574 27.4745 16.249 27.0315 16.249 26.5394V24.3536C14.2696 23.2144 12.8877 21.1474 12.7006 18.7508H12.3429C11.7662 18.7508 11.214 18.5059 10.8266 18.0777C10.4399 17.6502 10.2514 17.0742 10.3093 16.4976C10.3561 16.0307 10.5735 15.6099 10.8986 15.2893C10.8956 15.2663 10.8934 15.2433 10.8934 15.2195V13.4346C10.8934 10.5267 12.2976 7.94095 14.4633 6.31855C14.4633 3.38765 16.8487 0.979248 19.7796 0.979248C22.7105 0.979248 25.0922 3.38535 25.0959 6.31405C25.3572 6.50925 25.6088 6.72005 25.85 6.94495C27.4932 8.48275 28.4855 10.5623 28.6436 12.8C28.6651 13.1065 28.4343 13.373 28.1278 13.3945C27.8227 13.416 27.5548 13.1852 27.5333 12.8787C27.3952 10.9215 26.5276 9.10325 25.0892 7.75765C23.6449 6.40605 21.759 5.66165 19.7796 5.66165C15.4935 5.66165 12.0067 9.14845 12.0067 13.4346V14.7044C12.1433 14.6777 12.2835 14.6629 12.4275 14.6629H13.235C13.5838 14.6629 13.8681 14.3786 13.8681 14.0298V13.6372C13.8681 12.4341 14.5487 11.3869 15.5454 10.8599C15.0333 10.5564 14.7379 10.3485 14.6956 10.3181C14.4455 10.1392 14.3876 9.79265 14.5665 9.54185C14.7446 9.29175 15.0927 9.23385 15.3428 9.41195C15.3807 9.43865 19.1985 12.1201 24.6142 12.8156C25.2273 12.8942 25.6904 13.4153 25.6904 14.0298C25.6904 14.3794 25.9747 14.6629 26.3235 14.6629H27.2156C27.7923 14.6629 28.3445 14.9078 28.7319 15.336C29.1186 15.7635 29.3071 16.3395 29.2492 16.9162C29.146 17.9456 28.2153 18.7516 27.131 18.7516H26.8586C26.7287 20.4386 26.0095 22.0068 24.7998 23.2158C24.3493 23.6664 23.8483 24.0493 23.3102 24.3581V26.5386C23.3102 27.0307 23.6026 27.4738 24.0546 27.6675L29.4978 29.9987C30.7989 30.5561 31.639 31.8297 31.639 33.245V38.4225C31.639 38.7298 31.3897 38.9792 31.0824 38.9792C30.7751 38.9792 30.5258 38.7298 30.5258 38.4225V33.245C30.5258 32.2765 29.9506 31.4037 29.0599 31.0222L25.6897 29.5786V33.1055H27.5125C28.4758 33.1055 29.2588 33.8893 29.2588 34.852V37.2313C29.2588 38.1947 28.4751 38.9777 27.5125 38.9777C27.2052 38.9777 26.9558 38.7284 26.9558 38.4211C26.9558 38.1138 27.2052 37.8644 27.5125 37.8644C27.862 37.8644 28.1456 37.5801 28.1456 37.2313V34.852C28.1456 34.5031 27.8613 34.2188 27.5125 34.2188H22.7528C22.4033 34.2188 22.1197 34.5031 22.1197 34.852V37.2313C22.1197 37.5801 22.404 37.8644 22.7528 37.8644C23.0601 37.8644 23.3095 38.1138 23.3095 38.4211C23.3095 38.7284 23.0601 38.9777 22.7528 38.9777C21.7895 38.9777 21.0065 38.1939 21.0065 37.2313V34.852C21.0065 33.8885 21.7902 33.1055 22.7528 33.1055H24.5756V29.943L20.7467 32.4954C20.4528 32.6914 20.1151 32.7893 19.7781 32.7893C19.4412 32.7893 19.1035 32.6914 18.8096 32.4954L14.9806 29.943V34.3635C16.0041 34.6144 16.7656 35.5384 16.7656 36.6376C16.7656 37.9291 15.7154 38.9792 14.424 38.9792C13.1326 38.9792 12.0824 37.9291 12.0824 36.6376C12.0824 35.5384 12.8439 34.6144 13.8674 34.3635V29.5794L10.4971 31.0229C9.60653 31.4044 9.03133 32.2766 9.03133 33.2458V38.4233C9.03133 38.7305 8.78193 38.9799 8.47463 38.9799C8.16743 38.9799 7.91803 38.7305 7.91803 38.4233V33.2458C7.91803 31.8312 8.75893 30.5568 10.0592 29.9994H10.0614ZM23.9203 5.57035C23.5752 3.59765 21.8511 2.09325 19.7811 2.09325C17.7112 2.09325 15.9848 3.59985 15.6412 5.57485C16.8784 4.92095 18.2871 4.54985 19.7811 4.54985C21.2751 4.54985 22.6563 4.90385 23.9203 5.57035ZM25.7691 18.1949C25.7691 18.0473 25.8277 17.9055 25.9324 17.8016C26.037 17.6969 26.178 17.6383 26.3257 17.6383H27.1332C27.6535 17.6383 28.0973 17.2724 28.1441 16.8056C28.1708 16.5376 28.0877 16.2808 27.9088 16.0834C27.7322 15.889 27.4806 15.7769 27.2186 15.7769H26.3265C25.3631 15.7769 24.5801 14.9932 24.5801 14.0283C24.5801 13.9734 24.5363 13.9281 24.4762 13.9207C21.2885 13.5117 18.6626 12.4719 16.937 11.614C15.8535 11.6526 14.9844 12.5454 14.9844 13.6379V14.0305C14.9844 14.9939 14.2006 15.7769 13.238 15.7769H12.4305C11.9102 15.7769 11.4664 16.1428 11.4196 16.6096C11.3929 16.8776 11.476 17.1344 11.6549 17.3318C11.8315 17.5262 12.0831 17.6383 12.3451 17.6383H13.2372C13.5445 17.6383 13.7939 17.8877 13.7939 18.1949C13.7939 21.4962 16.4799 24.1829 19.7819 24.1829C21.3813 24.1829 22.8849 23.5602 24.016 22.4291C25.1471 21.298 25.7691 19.7944 25.7691 18.1949ZM19.4301 31.5707C19.6431 31.7132 19.9192 31.7132 20.1329 31.5707L24.1259 28.9084L23.6197 28.6917C22.7573 28.3221 22.1999 27.4776 22.1999 26.5394V24.8754C21.4347 25.1515 20.6198 25.2962 19.7819 25.2962C18.9439 25.2962 18.1186 25.1463 17.3638 24.8717V26.5394C17.3638 27.4776 16.8064 28.3221 15.944 28.6917L15.4378 28.9084L19.4308 31.5699L19.4301 31.5707ZM13.1987 36.6384C13.1987 37.3153 13.7494 37.8666 14.427 37.8666C15.1046 37.8666 15.6553 37.316 15.6553 36.6384C15.6553 35.9608 15.1046 35.41 14.427 35.41C13.7494 35.41 13.1987 35.9608 13.1987 36.6384Z" fill="white"/>
<path d="M22.7558 15.8533C23.0631 15.8533 23.3124 16.1027 23.3124 16.41V17.0052C23.3124 17.3125 23.0631 17.5618 22.7558 17.5618C22.4485 17.5618 22.1992 17.3125 22.1992 17.0052V16.41C22.1992 16.1027 22.4485 15.8533 22.7558 15.8533Z" fill="white"/>
<path d="M16.8064 17.5618C16.4991 17.5618 16.2498 17.3125 16.2498 17.0052V16.41C16.2498 16.1027 16.4991 15.8533 16.8064 15.8533C17.1137 15.8533 17.363 16.1027 17.363 16.41V17.0052C17.363 17.3125 17.1137 17.5618 16.8064 17.5618Z" fill="white"/>
<path d="M17.5664 19.6259C17.7624 19.3884 18.1127 19.355 18.3502 19.5502C18.7109 19.8478 19.2326 20.0178 19.7811 20.0178C20.3296 20.0178 20.8513 19.8471 21.212 19.5502C21.4495 19.3542 21.7999 19.3884 21.9958 19.6259C22.191 19.8634 22.1576 20.2137 21.9201 20.4096C21.3553 20.875 20.5953 21.1318 19.7811 21.1318C18.9669 21.1318 18.2069 20.8757 17.6421 20.4096C17.4046 20.2137 17.3712 19.8634 17.5664 19.6259Z" fill="white"/>
<path d="M1.97533 28.1047L4.32433 27.3217C4.33993 27.3165 4.35033 27.3017 4.35033 27.2853V25.7549C3.27263 25.0098 2.56533 23.7659 2.56533 22.3602V20.5752C2.56533 18.9558 3.88273 17.6384 5.50143 17.6384H7.88093C9.50033 17.6384 10.817 18.9558 10.817 20.5752V22.3602C10.817 23.7666 10.1097 25.0098 9.03203 25.7549V27.2853C9.03203 27.3017 9.04243 27.3165 9.05803 27.3217L9.84103 27.583C10.1327 27.6802 10.29 27.9956 10.1928 28.2873C10.1148 28.5203 9.89813 28.668 9.66513 28.668C9.60653 28.668 9.54713 28.6591 9.48923 28.6391L8.98753 28.4721L7.38143 29.6767C7.17803 29.8296 6.93463 29.9053 6.69043 29.9053C6.44623 29.9053 6.20283 29.8288 5.99943 29.6767L4.86683 28.8276V31.4141C5.55783 31.6472 6.05663 32.301 6.05663 33.0692C6.05663 34.0326 5.27283 34.8156 4.31023 34.8156C3.34763 34.8156 2.56383 34.0318 2.56383 33.0692C2.56383 32.301 3.06263 31.6472 3.75363 31.4141V28.6851L2.32483 29.1616C2.06583 29.2477 1.89223 29.4896 1.89223 29.762V34.2589C1.89223 34.5662 1.64283 34.8156 1.33553 34.8156C1.02823 34.8156 0.778931 34.5662 0.778931 34.2589V29.762C0.778931 29.0087 1.25913 28.343 1.97313 28.1055L1.97533 28.1047ZM9.70523 22.3594V20.5745C9.70523 19.5688 8.88733 18.7509 7.88233 18.7509H5.50293C4.49723 18.7509 3.68013 19.5688 3.68013 20.5745V22.3594C3.68013 24.0212 5.03163 25.3727 6.69343 25.3727C8.35513 25.3727 9.70663 24.0212 9.70663 22.3594H9.70523ZM6.66963 28.786C6.68303 28.7964 6.70233 28.7964 6.71563 28.786L8.03903 27.7937C7.96323 27.6394 7.92093 27.4664 7.92093 27.2853V26.299C7.53283 26.42 7.12013 26.486 6.69263 26.486C6.26513 26.486 5.85253 26.4207 5.46433 26.299V27.2853C5.46433 27.4657 5.42203 27.6386 5.34633 27.7937L6.66963 28.786ZM4.31243 33.7023C4.66133 33.7023 4.94553 33.418 4.94553 33.0692C4.94553 32.7204 4.66133 32.4361 4.31243 32.4361C3.96363 32.4361 3.67933 32.7204 3.67933 33.0692C3.67933 33.418 3.96363 33.7023 4.31243 33.7023Z" fill="white"/>
<path d="M33.5613 29.6768C33.3579 29.8296 33.1138 29.9054 32.8703 29.9054C32.6269 29.9054 32.3827 29.8289 32.1793 29.6768L30.5725 28.4722L30.0715 28.6392C30.0129 28.6585 29.9535 28.6681 29.8956 28.6681C29.6626 28.6681 29.4451 28.5204 29.3679 28.2874C29.2707 27.9957 29.4281 27.6803 29.7197 27.583L30.5027 27.3218C30.5183 27.3166 30.5287 27.3018 30.5287 27.2854V25.755C29.4518 25.0099 28.7438 23.766 28.7438 22.3603V19.9808C28.7438 18.6894 29.794 17.6392 31.0854 17.6392H34.6553C35.9467 17.6392 36.9969 18.6894 36.9969 19.9808V22.3603C36.9969 23.7667 36.2896 25.0099 35.2119 25.755V27.2854C35.2119 27.3018 35.2223 27.3166 35.2379 27.3218L37.5869 28.1048C38.3009 28.343 38.7811 29.0088 38.7811 29.7621V34.259C38.7811 34.5663 38.5317 34.8157 38.2245 34.8157C37.9172 34.8157 37.6678 34.5663 37.6678 34.259V29.7621C37.6678 29.489 37.4941 29.2478 37.2344 29.1617L35.2112 28.487V31.3229H35.8443C36.4796 31.3229 36.9961 31.8395 36.9961 32.4748V33.6645C36.9961 34.2998 36.4796 34.8164 35.8443 34.8164C35.537 34.8164 35.2876 34.567 35.2876 34.2598C35.2876 33.9525 35.537 33.7031 35.8443 33.7031C35.865 33.7031 35.8829 33.6861 35.8829 33.6645V32.4748C35.8829 32.4533 35.8658 32.4362 35.8443 32.4362H33.4648C33.4433 32.4362 33.4262 32.4533 33.4262 32.4748V33.6645C33.4262 33.6853 33.4433 33.7031 33.4648 33.7031C33.7721 33.7031 34.0215 33.9525 34.0215 34.2598C34.0215 34.567 33.7721 34.8164 33.4648 34.8164C32.8295 34.8164 32.3129 34.2998 32.3129 33.6645V32.4748C32.3129 31.8395 32.8295 31.3229 33.4648 31.3229H34.0979V29.2745L33.5613 29.6768ZM34.6545 18.7518H31.0846C30.4077 18.7518 29.8563 19.3025 29.8563 19.9801V21.1854C31.642 21.0362 32.8941 20.2072 33.378 19.8309C33.7854 19.514 34.3599 19.5095 34.7733 19.8198L35.8821 20.6518V19.9801C35.8821 19.3032 35.3321 18.7518 34.6545 18.7518ZM35.8829 22.3595V22.0426L34.1061 20.7096C34.0972 20.703 34.0801 20.6948 34.0623 20.7096C33.3505 21.2626 31.9018 22.1591 29.8578 22.3016V22.3595C29.8578 24.0213 31.2093 25.3728 32.8711 25.3728C34.5328 25.3728 35.8843 24.0213 35.8843 22.3595H35.8829ZM32.8696 26.4861C32.4421 26.4861 32.0294 26.4208 31.6413 26.2991V27.2854C31.6413 27.4658 31.599 27.6387 31.5232 27.7938L32.8466 28.7861C32.8599 28.7965 32.8792 28.7965 32.8926 28.7861L34.2159 27.7938C34.1402 27.6395 34.0979 27.4665 34.0979 27.2854V26.2991C33.7097 26.4208 33.2971 26.4861 32.8696 26.4861Z" fill="white"/>
</g>
</svg>
