<svg width="45" height="41" viewBox="0 0 45 41" fill="none" xmlns="http://www.w3.org/2000/svg">
<path d="M0.613012 39.7105C0.456912 39.9533 0.464012 40.2674 0.634312 40.5031C0.769112 40.6959 0.989011 40.8101 1.21601 40.8101C1.26571 40.8101 1.31541 40.8101 1.37211 40.7958L7.89201 39.3392C9.77201 40.3031 11.8791 40.8101 13.9932 40.8101C21.3502 40.8101 27.345 34.8408 27.4585 27.4577C30.6511 28.3288 34.1486 28.0004 37.1141 26.4866L43.634 27.9361C43.6836 27.9504 43.7333 27.9504 43.7901 27.9504C44.0171 27.9504 44.237 27.8362 44.3718 27.6434C44.535 27.4077 44.5421 27.0936 44.3931 26.8508L41.7327 22.6166C43.5205 20.2674 44.4995 17.3613 44.4995 14.3767C44.4995 6.89356 38.455 0.810059 31.02 0.810059C23.585 0.810059 17.6682 6.77936 17.5546 14.1553C16.4195 13.8412 15.2277 13.6627 13.9932 13.6627C6.54401 13.6698 0.499512 19.7533 0.499512 27.2364C0.499512 30.2139 1.47851 33.12 3.27341 35.4763L0.613012 39.7105ZM31.0058 2.24526C37.6533 2.24526 43.0664 7.69336 43.0664 14.3838C43.0664 17.2042 42.0874 19.9533 40.2996 22.1168C40.1009 22.3524 40.0796 22.6951 40.2428 22.9522L42.2647 26.1653L37.1567 25.03C36.9935 24.9943 36.8162 25.0157 36.6672 25.0943C33.8365 26.608 30.424 26.9008 27.3876 25.944C26.9052 20.7958 23.5424 16.4759 18.9452 14.6337C18.9452 14.5481 18.9381 14.4624 18.9381 14.3767C18.9381 7.68616 24.3512 2.23816 30.9987 2.23816H31.0058V2.24526ZM1.91841 27.2364C1.91841 20.5459 7.33151 15.0979 13.979 15.0979C20.6266 15.0979 26.0396 20.5459 26.0396 27.2364C26.0396 33.9268 20.6266 39.3749 13.979 39.3749C12.0068 39.3749 10.0487 38.8822 8.31051 37.9468C8.20411 37.8897 8.09061 37.8612 7.97711 37.8612C7.92741 37.8612 7.87071 37.8612 7.82101 37.8754L2.72011 39.0107L4.74201 35.7976C4.90521 35.5334 4.88391 35.1978 4.69231 34.9622C2.90451 32.7915 1.92551 30.0425 1.92551 27.2221V27.2364H1.91841Z" fill="#A38457"/>
<path d="M13.979 33.6626C14.5667 33.6626 15.0432 33.183 15.0432 32.5915C15.0432 32 14.5667 31.5205 13.979 31.5205C13.3913 31.5205 12.9148 32 12.9148 32.5915C12.9148 33.183 13.3913 33.6626 13.979 33.6626Z" fill="#A38457"/>
<path d="M13.979 21.5242C15.1496 21.5242 16.1073 22.4882 16.1073 23.6663C16.1073 24.8445 15.1496 25.8084 13.979 25.8084C13.5888 25.8084 13.2695 26.1297 13.2695 26.5224V30.0926H14.6884V27.1651C16.306 26.8366 17.5262 25.3943 17.5262 23.6663C17.5262 21.6956 15.9371 20.0962 13.979 20.0962C12.0209 20.0962 10.4318 21.6956 10.4318 23.6663H11.8506C11.8506 22.4882 12.8084 21.5242 13.979 21.5242Z" fill="#A38457"/>
<path d="M25.3302 9.38574H36.6814V10.8138H25.3302V9.38574Z" fill="#A38457"/>
<path d="M25.3302 13.6699H36.6814V15.098H25.3302V13.6699Z" fill="#A38457"/>
<path d="M28.168 17.9541H36.6814V19.3821H28.168V17.9541Z" fill="#A38457"/>
</svg>
