<svg width="32" height="33" viewBox="0 0 32 33" fill="none" xmlns="http://www.w3.org/2000/svg">
<path d="M25.038 32.8101H27.7659C28.1116 32.8101 28.3945 32.5221 28.3945 32.1701V30.3461C28.6773 30.4805 28.9853 30.5637 29.3184 30.5637C29.903 30.5637 30.4498 30.3333 30.8584 29.9109C31.2732 29.4885 31.4995 28.9317 31.4995 28.3429V20.8549C31.4995 18.7621 29.8276 17.0597 27.7659 17.0597H26.9928C26.0563 17.0597 25.2014 16.6117 24.6923 15.8565C23.9255 14.7173 22.6621 14.0389 21.3107 14.0389H18.4446V10.2949C20.0599 9.46931 21.1725 7.77331 21.1725 5.81491C21.1725 3.05011 18.9662 0.803711 16.2509 0.803711C13.5356 0.803711 11.3294 3.05011 11.3294 5.81491C11.3294 7.77331 12.4419 9.46931 14.0573 10.2949V14.0453C12.775 14.0965 11.6499 14.7877 10.9837 15.8181C10.2986 14.7493 9.11058 14.0389 7.75918 14.0389C6.75978 14.0389 5.85468 14.4293 5.16958 15.0693V1.45011C5.16958 1.09811 4.88678 0.81011 4.54108 0.81011H1.12798C0.782283 0.81011 0.499481 1.09811 0.499481 1.45011V32.1701C0.499481 32.5221 0.782283 32.8101 1.12798 32.8101H4.54108C4.88678 32.8101 5.16958 32.5221 5.16958 32.1701V26.0133H24.4095V32.1701C24.4095 32.5221 24.6923 32.8101 25.038 32.8101ZM12.5865 5.82131C12.5865 3.76691 14.2333 2.09011 16.2509 2.09011C18.2686 2.09011 19.9154 3.76691 19.9154 5.82131C19.9154 7.87571 18.2686 9.55251 16.2509 9.55251C14.2333 9.55251 12.5865 7.87571 12.5865 5.82131ZM16.2509 10.8325C16.5715 10.8325 16.8858 10.8005 17.1875 10.7365V16.4517C17.1875 16.9893 16.7789 17.4053 16.2509 17.4053C15.7229 17.4053 15.3144 16.9765 15.3144 16.4517V10.7365C15.6161 10.7941 15.9304 10.8325 16.2509 10.8325ZM14.051 15.3381V16.4517C14.051 17.6869 15.0378 18.6853 16.2446 18.6853C17.4514 18.6853 18.4383 17.6805 18.4383 16.4517V15.3189H21.3044C22.241 15.3189 23.1147 15.7925 23.6489 16.5797C24.3906 17.6805 25.6414 18.3397 26.9865 18.3397H27.7596C29.1236 18.3397 30.2361 19.4661 30.2361 20.8549V28.3429C30.2361 28.5925 30.1418 28.8293 29.9658 29.0085C29.7898 29.1877 29.5573 29.2837 29.3122 29.2837C28.803 29.2837 28.3882 28.8613 28.3882 28.3429V21.2453C28.3882 21.1557 28.3693 21.0725 28.3379 20.9957C28.3379 20.9893 28.3316 20.9829 28.3253 20.9765C28.2939 20.9125 28.2562 20.8485 28.2059 20.7909C28.0928 20.6757 27.9356 20.6053 27.7596 20.6053H14.0321C12.6808 20.5221 11.6059 19.3765 11.6059 17.9749C11.6059 16.5733 12.6933 15.4277 14.051 15.3445V15.3381ZM11.3482 20.5989H10.594C10.7323 20.4453 10.858 20.2789 10.9711 20.1061C11.0843 20.2789 11.21 20.4453 11.3482 20.5989ZM7.75918 15.3253C9.18598 15.3253 10.3489 16.5093 10.3489 17.9621C10.3489 19.4149 9.18598 20.5989 7.75918 20.5989C6.33238 20.5989 5.16958 19.4149 5.16958 17.9621C5.16958 16.5093 6.33238 15.3253 7.75918 15.3253ZM3.91248 31.5301H1.75658V2.09011H3.91248V31.5301ZM5.16958 24.7333V21.8789H13.8939C14.0007 21.8853 14.1013 21.8981 14.2081 21.8981L27.1374 21.8853V31.5301H25.6666V25.3733C25.6666 25.0213 25.3837 24.7333 25.038 24.7333H5.16958Z" fill="#A38457"/>
</svg>
