<svg width="40" height="33" viewBox="0 0 40 33" fill="none" xmlns="http://www.w3.org/2000/svg">
<path d="M6.71807 4.07715C6.38137 4.07715 6.10876 4.34835 6.10876 4.68345V22.4924C6.10876 22.8275 6.38137 23.0987 6.71807 23.0987H33.2801C33.6168 23.0987 33.8893 22.8275 33.8893 22.4924V4.68345C33.8893 4.34835 33.6168 4.07715 33.2801 4.07715H6.71807ZM32.6708 5.28975V13.405H31.4618L30.2821 9.70885C30.1997 9.45105 29.9517 9.26495 29.6807 9.28705C29.4074 9.29575 29.1745 9.48415 29.1095 9.74825L27.8553 14.8249L27.5218 13.9222C27.4338 13.6833 27.2049 13.5256 26.9497 13.5256H23.7117C23.4542 13.5256 23.2244 13.6864 23.1381 13.9285L22.1612 16.6533L20.2162 8.15485C20.1544 7.88445 19.9159 7.68965 19.637 7.68255H19.6219C19.3486 7.68255 19.1085 7.86315 19.0349 8.12645L17.5755 13.3316H16.0416C15.7667 13.3316 15.5259 13.5146 15.4538 13.7779L14.6036 16.8773L13.2053 10.394C13.1466 10.1235 12.9113 9.92645 12.6332 9.91545C12.6253 9.91545 12.6174 9.91545 12.6095 9.91545C12.3401 9.91545 12.1024 10.0912 12.0248 10.349L10.4798 15.5251L9.60437 13.7014C9.50287 13.4909 9.28977 13.3561 9.05447 13.3561H7.32577V5.28975H32.6692H32.6708ZM7.32727 21.8862V14.5695H8.67097L10.0639 17.4709C10.1732 17.6972 10.4022 17.8337 10.6613 17.8148C10.9132 17.795 11.1263 17.6231 11.1976 17.3826L12.5144 12.9705L13.9373 19.5658C13.996 19.8393 14.2352 20.0372 14.5165 20.0451H14.5331C14.8073 20.0451 15.0489 19.863 15.121 19.5989L16.5075 14.5458H18.039C18.3131 14.5458 18.5524 14.3645 18.6261 14.1019L19.5625 10.7606L21.4386 18.9539C21.4989 19.2165 21.7262 19.4089 21.9964 19.4246C22.2777 19.4436 22.5161 19.278 22.6065 19.0233L24.1427 14.739H26.5259L27.4013 17.1043C27.4933 17.3542 27.7436 17.5056 28.0074 17.5001C28.2752 17.4851 28.501 17.2983 28.5652 17.0396L29.7774 12.1317L30.4366 14.1958C30.5166 14.4473 30.7519 14.6184 31.0173 14.6184H32.6724V21.8862H7.32727Z" fill="#A38457"/>
<path d="M38.0685 25.156H37.1764V19.7608C37.1764 19.4257 36.9038 19.1545 36.5671 19.1545C36.2304 19.1545 35.9578 19.4257 35.9578 19.7608V25.156H24.8675C23.252 25.156 22.6634 26.4672 22.4447 26.6864C22.2252 26.9056 21.8338 27.0845 21.4892 27.0845H17.6886C17.3313 27.0845 16.9914 26.9418 16.7419 26.6974C16.505 26.4648 15.9171 25.156 14.3103 25.156H4.04397V4.59376C4.04397 3.17616 5.20307 2.02266 6.62757 2.02266H33.3607C34.7916 2.02266 35.9562 3.17846 35.9562 4.60006V16.6914C35.9562 17.0265 36.2288 17.2977 36.5655 17.2977C36.9022 17.2977 37.1748 17.0265 37.1748 16.6914V4.60006C37.1748 2.50996 35.4634 0.810059 33.3599 0.810059H6.62837C4.53197 0.810059 2.82547 2.50756 2.82547 4.59376V25.156H1.92937C1.14027 25.156 0.498474 25.7947 0.498474 26.5799V28.2632C0.498474 30.7704 2.54737 32.8093 5.06677 32.8093H34.9302C37.4497 32.8093 39.4985 30.7696 39.4985 28.2632V26.5799C39.4985 25.7947 38.856 25.156 38.0669 25.156H38.0685ZM38.2808 28.2632C38.2808 30.1018 36.7778 31.5967 34.931 31.5967H5.06757C3.22077 31.5967 1.71857 30.1011 1.71857 28.2632C1.78677 26.9024 1.55697 26.3686 1.93017 26.3686C14.548 26.3702 14.2089 26.3702 14.3127 26.3702C15.2032 26.3702 15.4465 27.0743 15.7832 27.4464C16.2641 27.9786 16.9542 28.2979 17.6886 28.2979H21.4908C22.2126 28.2979 23.0191 27.9557 23.5301 27.2887C23.7036 27.064 24.0134 26.3702 24.8667 26.3702C26.2167 26.3702 19.9767 26.3702 38.0685 26.3686C38.4408 26.3686 38.2119 26.8882 38.2808 28.2632Z" fill="#A38457"/>
</svg>
