<svg width="27" height="35" viewBox="0 0 27 35" fill="none" xmlns="http://www.w3.org/2000/svg">
<path d="M22.0219 22.0708C22.3907 22.0708 22.6897 21.7735 22.6897 21.4068C22.6897 21.04 22.3907 20.7427 22.0219 20.7427C21.6532 20.7427 21.3542 21.04 21.3542 21.4068C21.3542 21.7735 21.6532 22.0708 22.0219 22.0708Z" fill="#A38457"/>
<path d="M26.2137 6.50787C26.0347 6.38307 25.8057 6.35377 25.6007 6.42817C24.4656 6.84057 23.2631 7.04977 22.0259 7.04977C20.2906 7.04977 17.4989 6.01647 14.0563 1.09507C13.9314 0.916471 13.7258 0.80957 13.5068 0.80957H13.4921C13.2731 0.80957 13.0681 0.916471 12.9433 1.09507C9.50063 6.01647 6.70902 7.04977 4.97372 7.04977C3.73642 7.04977 2.53392 6.84057 1.39882 6.42817C1.19382 6.35377 0.964823 6.38307 0.785923 6.50787C0.606923 6.63267 0.500122 6.83587 0.500122 7.05307V16.0837C0.500122 19.748 1.56042 23.3771 3.56622 26.5798C5.56592 29.772 8.46902 32.482 11.9617 34.4165C12.4365 34.6794 12.968 34.8102 13.5001 34.8102C14.0323 34.8102 14.5637 34.6788 15.0385 34.4165C18.5319 32.482 21.4343 29.7727 23.4341 26.5798C25.4398 23.3771 26.5001 19.748 26.5001 16.0837V7.05307C26.5001 6.83587 26.3927 6.63207 26.2137 6.50787ZM25.1614 16.0837C25.1614 19.4989 24.1712 22.885 22.2976 25.8759C20.4174 28.8775 17.6819 31.4282 14.3868 33.253C13.848 33.5512 13.1509 33.5512 12.6121 33.253C9.31632 31.4282 6.58152 28.8775 4.70122 25.8759C2.82772 22.885 1.83752 19.4983 1.83752 16.0837V7.96347C2.84912 8.24037 3.90002 8.38057 4.97302 8.38057C8.38622 8.38057 11.4142 5.39627 13.4994 2.60517C14.533 3.99107 15.588 5.14587 16.6423 6.04567C18.4584 7.59497 20.2699 8.38057 22.0259 8.38057C23.0989 8.38057 24.1498 8.24037 25.1614 7.96347V16.0837Z" fill="#A38457"/>
<path d="M16.233 23.4419V20.528H19.1629C19.5321 20.528 19.8319 20.2298 19.8319 19.8626V15.7554C19.8319 15.3882 19.5321 15.09 19.1629 15.09H16.233V12.1761C16.233 11.8089 15.9333 11.5107 15.564 11.5107H11.4343C11.0651 11.5107 10.7653 11.8089 10.7653 12.1761V15.09H7.83554C7.46624 15.09 7.16644 15.3882 7.16644 15.7554V19.8626C7.16644 20.2298 7.46624 20.528 7.83554 20.528H10.7653V23.4419C10.7653 23.8091 11.0651 24.1073 11.4343 24.1073H15.564C15.9333 24.1073 16.233 23.8098 16.233 23.4419ZM14.8957 19.8626V22.7765H12.104V19.8626C12.104 19.4954 11.8042 19.1972 11.435 19.1972H8.50524V16.4208H11.435C11.8042 16.4208 12.104 16.1226 12.104 15.7554V12.8415H14.8957V15.7554C14.8957 16.1226 15.1955 16.4208 15.5647 16.4208H18.4945V19.1972H15.5647C15.1955 19.1972 14.8957 19.4947 14.8957 19.8626Z" fill="#A38457"/>
<path d="M21.204 23.5689C20.8675 23.4169 20.4709 23.5656 20.3186 23.8997C19.2236 26.2996 17.4001 28.3907 15.0445 29.9466C14.7661 30.1306 14.6659 30.5051 14.8182 30.8019C14.9971 31.1519 15.4558 31.2727 15.785 31.0549C18.3496 29.3609 20.3387 27.0765 21.5372 24.4488C21.6901 24.1141 21.5398 23.7203 21.204 23.5689Z" fill="#A38457"/>
</svg>
