<svg width="38" height="38" viewBox="0 0 38 38" fill="none" xmlns="http://www.w3.org/2000/svg">
<path d="M36.9675 5.69496L37.2702 5.39686C37.417 5.25006 37.4995 5.05286 37.4995 4.85106V1.58076C37.4995 1.15426 37.1555 0.810264 36.729 0.810264H33.4587C33.2569 0.810264 33.0643 0.888264 32.9175 1.03036L32.6836 1.25976C31.5324 2.36966 29.2941 4.53456 29.0097 8.31396C28.1383 7.35986 27.62 6.06186 27.4732 4.45656L27.4824 1.58076C27.4824 1.15426 27.1384 0.810264 26.7119 0.805664C26.2853 0.805664 25.9413 1.14966 25.9413 1.57626L25.9367 4.52076C26.2578 8.02496 27.9915 9.74956 29.3904 10.5797C29.6381 10.7265 29.9454 10.7265 30.1885 10.5706C30.4316 10.4192 30.5738 10.144 30.5508 9.85956C30.2435 5.75916 32.5322 3.54846 33.7569 2.36506L35.963 2.35136V4.52536L35.9034 4.58506C34.4036 6.03436 32.5368 7.83236 34.3256 12.6024C35.275 15.1296 35.1191 17.7623 33.899 19.8171C33.3074 20.817 32.1378 22.2067 29.95 23.1149C29.7252 23.2066 29.5601 23.3992 29.5005 23.6332C29.4409 23.8671 29.4913 24.1147 29.6427 24.3074C31.4085 26.541 33.5872 27.5088 35.9676 27.1373V30.2378C35.5961 30.2837 35.2613 30.3066 34.9448 30.3066C29.7619 30.3066 26.7852 25.7934 25.9963 24.4129C25.8588 24.1744 25.6065 24.023 25.3313 24.023C24.7029 24.023 24.0654 23.9634 23.4279 23.8579C23.1618 23.8166 22.905 23.9083 22.7261 24.1056C22.5518 24.3028 22.4876 24.5734 22.561 24.8303C23.4508 27.9537 22.0611 30.4534 20.9419 32.0587C19.9099 33.5356 20.3732 34.9666 20.3732 34.9666L20.786 36.2646H17.557L17.4653 36.0032C17.3644 35.7051 16.5113 33.0219 18.4055 30.2975C19.0018 29.4398 19.5293 28.4949 19.3274 27.3987C19.1669 26.5089 18.5523 25.7109 17.4561 24.9587C16.8507 24.5459 16.3186 24.0643 15.8554 23.5368L17.8414 21.5508C18.1441 21.2481 18.1441 20.7619 17.8414 20.4592C17.5387 20.1565 17.0525 20.1565 16.7498 20.4592L14.9427 22.2663C14.5207 21.5325 14.218 20.739 14.062 19.9088C13.9382 19.2575 13.7731 18.909 13.4887 18.698C11.9568 17.5697 10.6083 16.368 9.47554 15.1159C9.31494 14.937 9.07644 14.8407 8.83794 14.8636C8.59944 14.8819 8.38394 15.015 8.25544 15.2168C6.88864 17.3679 4.88433 19.0557 2.60933 19.9639L2.03604 20.1932V16.8404C4.72384 15.5103 6.31994 12.8776 6.60434 11.3365C6.63644 11.176 6.61344 11.0063 6.54004 10.8595C4.31104 6.28666 5.37054 2.80546 5.41634 2.65866L5.68243 1.81476C5.70533 1.73676 5.71453 1.65876 5.71453 1.58076C5.71453 1.25056 5.50813 0.947864 5.17783 0.846964C4.76963 0.723064 4.33854 0.943263 4.21014 1.35146L3.94403 2.19536C3.81103 2.61276 2.73323 6.37836 5.03563 11.2861C4.70083 12.4556 3.31114 14.6618 0.971935 15.6387C0.683035 15.758 0.494934 16.0378 0.494934 16.3497V21.3399C0.494934 21.5967 0.623335 21.8352 0.834335 21.9774C1.04534 22.1196 1.31593 22.1517 1.55443 22.0554L3.18274 21.4041C5.45764 20.4913 7.49414 18.8998 9.00304 16.8633C10.0259 17.9045 11.1863 18.9136 12.4705 19.863C12.4888 19.9226 12.5164 20.0235 12.5531 20.2024C12.7686 21.3444 13.2044 22.4177 13.8281 23.3947L9.44793 27.7748L8.90213 27.229C8.64073 26.9676 8.23254 26.9263 7.92984 27.1327L4.66413 29.3113C4.65953 29.3113 4.65504 29.3205 4.64584 29.3251C4.60914 29.348 4.57703 29.3756 4.54493 29.4077L0.728834 33.2237C0.426134 33.5264 0.426134 34.0126 0.728834 34.3153C1.03163 34.618 1.51773 34.618 1.82043 34.3153L5.09074 31.0451L6.18233 32.1367L7.27393 33.2283L4.00373 36.4985C3.70093 36.8012 3.70093 37.2874 4.00373 37.5901C4.15503 37.7415 4.35223 37.8149 4.54953 37.8149C4.74673 37.8149 4.94393 37.7415 5.09533 37.5901L8.91133 33.7741C8.94343 33.742 8.96633 33.7099 8.99393 33.6732C8.99393 33.6686 9.00303 33.664 9.00763 33.6548L11.1863 30.3892C11.3881 30.0819 11.3514 29.6783 11.0899 29.4168L10.5441 28.871L14.773 24.6422C15.3004 25.2339 15.9104 25.7705 16.5938 26.2429C17.3231 26.7429 17.7359 27.229 17.8185 27.6877C17.9102 28.1968 17.6167 28.7518 17.1442 29.426C14.8097 32.7788 15.8829 36.1454 16.0113 36.5215L16.282 37.3012C16.392 37.6085 16.681 37.8195 17.0112 37.8195H21.8409C22.0886 37.8195 22.3179 37.7002 22.4647 37.503C22.6114 37.3058 22.6527 37.0489 22.5748 36.815L21.8501 34.5401C21.8409 34.508 21.6529 33.7466 22.2078 32.9531C23.3774 31.2744 24.7901 28.7472 24.2901 25.5274C24.4874 25.5458 24.6846 25.5549 24.8818 25.5641C26.0376 27.4446 29.3491 31.8569 34.9448 31.8569C35.5227 31.8569 36.1511 31.7927 36.8712 31.6689C37.2381 31.6046 37.5087 31.2836 37.5087 30.9075V26.1971C37.5087 25.9631 37.4032 25.743 37.2197 25.5962C37.0363 25.4494 36.7978 25.3944 36.5684 25.4449L36.0685 25.5549C34.3852 25.931 32.8533 25.4357 31.5048 24.0918C33.4771 23.0415 34.61 21.6563 35.2292 20.6106C36.6877 18.1522 36.8849 15.0379 35.7704 12.0658C34.3348 8.24516 35.5594 7.06636 36.9766 5.69496H36.9675ZM8.25544 28.7655L8.89764 29.4077L9.53973 30.0498L8.23254 32.0128L6.29243 30.0727L8.25544 28.7655ZM9.60394 11.0751C7.28314 7.76356 8.34723 3.63556 8.35633 3.59436L8.93423 1.75966C8.92054 1.70006 8.91594 1.64046 8.91594 1.58076C8.91594 1.50286 8.92513 1.42486 8.95263 1.34686C9.08103 0.943264 9.51673 0.718564 9.92043 0.846964L10.0259 0.879064C10.3423 0.979964 10.5441 1.26896 10.5579 1.58076C10.5579 1.66796 10.5533 1.75966 10.5258 1.84686L9.83783 4.02546C9.83783 4.02546 8.99394 7.52506 10.8744 10.199C12.1219 11.974 14.3143 13.0152 17.3873 13.2858C21.6712 13.6665 22.9096 15.9369 23.8131 17.5972C24.5653 18.9778 24.9231 19.5282 26.2715 19.3401C28.0741 19.0833 29.3354 18.432 29.9133 17.4596C30.1747 17.0193 30.3032 16.4872 30.3032 15.891C27.7943 15.2672 22.0565 12.9602 21.3272 4.94276L21.3134 1.58076C21.3089 1.15886 21.6528 0.810264 22.0794 0.810264C22.506 0.810264 22.8499 1.15426 22.8499 1.58076L22.8591 4.87396C23.5517 12.4556 29.3996 14.1664 31.17 14.5058C31.4957 14.5701 31.7479 14.8361 31.7892 15.1663C31.936 16.3175 31.7433 17.3862 31.2342 18.2485C30.4132 19.6382 28.7712 20.5418 26.4825 20.872C26.2394 20.9041 26.0147 20.9225 25.8037 20.9225C23.859 20.9225 23.116 19.5603 22.4509 18.3402C21.5932 16.767 20.708 15.1388 17.2451 14.8269C13.6905 14.5104 11.122 13.2491 9.59933 11.0751H9.60394ZM15.1445 16.2258C15.5664 16.2258 15.915 16.5744 15.915 16.9964C15.915 17.4183 15.5664 17.7669 15.1445 17.7669C14.7225 17.7669 14.3739 17.4183 14.3739 16.9964C14.3739 16.5744 14.7225 16.2258 15.1445 16.2258ZM18.9972 17.7669C18.9972 18.1889 18.6486 18.5375 18.2267 18.5375C17.8047 18.5375 17.4561 18.1889 17.4561 17.7669C17.4561 17.3449 17.8047 16.9964 18.2267 16.9964C18.6486 16.9964 18.9972 17.3449 18.9972 17.7669ZM18.9972 23.1653C18.9972 22.7434 19.3458 22.3948 19.7678 22.3948C20.1897 22.3948 20.5383 22.7434 20.5383 23.1653C20.5383 23.5873 20.1897 23.9359 19.7678 23.9359C19.3458 23.9359 18.9972 23.5873 18.9972 23.1653ZM20.5383 20.8537C20.1163 20.8537 19.7678 20.5051 19.7678 20.0831C19.7678 19.6612 20.1163 19.3126 20.5383 19.3126C20.9603 19.3126 21.3089 19.6612 21.3089 20.0831C21.3089 20.5051 20.9603 20.8537 20.5383 20.8537Z" fill="#A38457"/>
</svg>
