<svg width="33" height="33" viewBox="0 0 33 33" fill="none" xmlns="http://www.w3.org/2000/svg">
<path d="M11.6958 16.2541L11.8597 16.3089L12.0235 16.2541C12.3157 16.1566 17.4765 14.3797 20.1236 10.5992H26.8976C27.1285 11.4876 27.9297 12.1488 28.8881 12.1488C30.0266 12.1488 30.9522 11.2223 30.9522 10.0826C30.9522 8.94297 30.0266 8.01647 28.8881 8.01647C27.9297 8.01647 27.1279 8.67757 26.8976 9.56607H20.7538C21.3156 8.48777 21.6652 7.27127 21.6652 5.90957C21.6652 2.73087 20.0598 1.53117 18.7136 1.08567C16.2948 0.28567 13.2239 1.36327 11.8487 2.61467C10.4626 1.36267 7.38776 0.28307 4.98506 1.08827C3.64856 1.53567 2.05536 2.73477 2.05536 5.90887C2.05536 12.943 11.3017 16.1223 11.6958 16.2541ZM28.8881 9.04887C29.4571 9.04887 29.9202 9.51247 29.9202 10.082C29.9202 10.6515 29.4571 11.1151 28.8881 11.1151C28.3192 11.1151 27.8561 10.6515 27.8561 10.082C27.8561 9.51247 28.3186 9.04887 28.8881 9.04887ZM5.31266 2.06777C5.75776 1.91857 6.24796 1.85337 6.75176 1.85337C8.65646 1.85337 10.7651 2.78837 11.4372 3.68067L11.8519 4.23207L12.2634 3.67807C13.1007 2.55077 16.2432 1.35497 18.3879 2.06577C19.8772 2.55917 20.6319 3.85177 20.6319 5.90887C20.6319 7.28227 20.2068 8.49877 19.547 9.56537H17.8712L15.426 4.09007L12.8227 10.8658L12.1809 9.56537H9.18536C8.97186 8.96557 8.40426 8.53237 7.73216 8.53237C6.87876 8.53237 6.18406 9.22777 6.18406 10.082C6.18406 10.9362 6.87876 11.6316 7.73216 11.6316C8.40426 11.6316 8.97186 11.1984 9.18536 10.5985H11.5397L12.9407 13.437L15.4976 6.78257L17.2017 10.5985H18.8026C16.4851 13.3859 12.6917 14.9065 11.8603 15.2152C10.6425 14.7645 3.08806 11.7291 3.08806 5.90887C3.08806 3.85437 3.83556 2.56237 5.31266 2.06777ZM8.24756 10.082C8.24756 10.3667 8.01596 10.5985 7.73146 10.5985C7.44706 10.5985 7.21546 10.3667 7.21546 10.082C7.21546 9.79717 7.44706 9.56537 7.73146 9.56537C8.01596 9.56537 8.24756 9.79657 8.24756 10.082Z" fill="#A38457"/>
<path d="M25.276 18.8632C25.2218 18.8632 20.8395 18.9142 19.1883 22.479H17.0197V18.3466H13.1051L11.908 17.1482L9.62334 18.8632H7.30834C7.26964 18.3725 7.23294 17.9799 7.21294 17.7784L7.14844 17.1353L6.53564 17.34C0.0364385 19.5089 0.503439 26.5797 0.508539 26.6585C0.514439 26.7198 1.14974 32.8099 8.24684 32.8099C13.3012 32.8099 15.9929 29.0094 16.7449 27.7516C18.1782 27.9428 19.5508 28.3256 20.2661 29.0423C22.4559 31.2344 25.1611 31.2596 25.2753 31.2596H32.4995V18.8625L25.276 18.8632ZM8.24754 31.7768C2.10884 31.7768 1.55734 26.776 1.53804 26.5713C1.53354 26.5106 1.14974 20.6943 6.24794 18.5513C6.42084 20.5936 6.51624 23.2409 6.23824 23.7975C6.18154 23.9111 6.12024 23.9408 6.06224 23.9563C5.77004 24.0357 5.21784 23.7949 4.92184 23.5986L4.34964 24.458C4.41284 24.5006 4.76954 24.7266 5.22044 24.8745C5.73264 26.7992 7.58504 27.4843 8.82354 27.6186C9.00024 28.3721 9.59364 29.1941 10.8288 29.1941C12.064 29.1941 12.6594 28.3689 12.8348 27.6147C13.5379 27.576 14.5351 27.565 15.5858 27.6367C14.6486 29.0004 12.2511 31.7755 8.24884 31.7755L8.24754 31.7768ZM31.4681 30.2272H27.34V26.0948H31.4681V30.2272ZM23.2119 25.0617V26.0948H26.308V30.2272H25.2773C25.2534 30.2272 22.8746 30.1923 20.9963 28.3121C18.7884 26.1019 12.5943 26.5907 12.3324 26.6133L11.8589 26.6527V27.1279C11.8589 27.3003 11.8093 28.161 10.8269 28.161C9.84454 28.161 9.79874 27.3674 9.79494 27.1279V26.6114H9.27894C9.25444 26.6114 7.04714 26.5855 6.33634 24.9513C6.69884 24.8519 6.98324 24.6136 7.16004 24.2604C7.50894 23.5618 7.47414 21.5298 7.37864 19.8969H9.96654L11.8099 18.5126L12.6768 19.3804H14.3822C14.2984 19.8511 14.0875 20.551 13.5579 21.0811L14.2874 21.8114C15.0763 21.0217 15.3388 19.9905 15.4265 19.3797H15.9871V22.4777C15.9871 22.541 15.9651 24.0286 14.955 24.0286V25.0617C16.0593 25.0617 16.6127 24.2888 16.8565 23.5121H18.8213C18.6607 24.119 18.5671 24.8022 18.5671 25.5783H19.5992C19.5992 19.9808 25.0444 19.8976 25.2753 19.8963H31.4675V25.0617H23.2106H23.2119Z" fill="#A38457"/>
<path d="M8.30164 20.6435C8.30554 20.6519 8.69124 21.4674 8.30164 22.2474L9.22464 22.7097C9.84844 21.4597 9.25044 20.2329 9.22464 20.1812L8.30164 20.6435Z" fill="#A38457"/>
</svg>
