<svg width="267" height="60" viewBox="0 0 267 60" fill="none" xmlns="http://www.w3.org/2000/svg">
<g clip-path="url(#clip0_1_884)">
<mask id="mask0_1_884" style="mask-type:luminance" maskUnits="userSpaceOnUse" x="0" y="0" width="266" height="60">
<path d="M265.584 0.360352H0.499512V59.3604H265.584V0.360352Z" fill="white"/>
</mask>
<g mask="url(#mask0_1_884)">
<path d="M130.242 16.0625C131.757 16.0625 132.863 16.5813 133.874 17.4552C133.997 17.5781 134.01 17.7556 133.887 17.8785L133.479 18.2881C133.356 18.4383 133.232 18.4247 133.082 18.2745C132.303 17.5918 131.238 17.1412 130.214 17.1412C127.839 17.1412 126.023 19.1347 126.023 21.4696C126.023 23.8044 127.839 25.7843 130.214 25.7843C131.525 25.7843 132.29 25.2518 133.082 24.651C133.232 24.5281 133.356 24.5418 133.438 24.61L133.887 25.0197C134.01 25.1152 133.983 25.3201 133.874 25.4293C132.85 26.4261 131.567 26.8903 130.229 26.8903C127.225 26.8903 124.807 24.5008 124.807 21.4969C124.807 18.4929 127.225 16.0761 130.229 16.0761L130.242 16.0625Z" fill="black"/>
<path d="M135.363 26.3305L139.924 16.2263C139.965 16.1308 140.046 16.0625 140.183 16.0625H140.333C140.47 16.0625 140.538 16.1308 140.593 16.2263L145.126 26.3305C145.221 26.5216 145.099 26.7265 144.866 26.7265H144.266C144.129 26.7265 144.033 26.6309 144.006 26.5626L142.9 24.0912H137.561L136.469 26.5626C136.442 26.6445 136.346 26.7265 136.21 26.7265H135.609C135.377 26.7265 135.267 26.5353 135.349 26.3305H135.363ZM142.491 23.149C141.753 21.5105 141.03 19.8584 140.292 18.2199H140.169L137.971 23.149H142.477H142.491Z" fill="black"/>
<path d="M147.351 16.4996C147.351 16.3494 147.474 16.2129 147.638 16.2129H151.53C153.332 16.2129 154.807 17.6193 154.807 19.408C154.807 20.7871 153.892 21.9477 152.581 22.4665L154.643 26.2761C154.752 26.4672 154.643 26.713 154.383 26.713H153.619C153.482 26.713 153.414 26.6311 153.373 26.5765L151.379 22.5894H148.512V26.4263C148.512 26.5765 148.376 26.713 148.225 26.713H147.638C147.474 26.713 147.351 26.5765 147.351 26.4263V16.486V16.4996ZM151.461 21.62C152.622 21.62 153.619 20.6642 153.619 19.4216C153.619 18.2747 152.608 17.3052 151.461 17.3052H148.553V21.62H151.461Z" fill="black"/>
<path d="M157.893 16.4996C157.893 16.3494 158.015 16.2129 158.166 16.2129H161.525C164.419 16.2129 166.795 18.5751 166.795 21.4561C166.795 24.3372 164.419 26.7267 161.525 26.7267H158.166C158.015 26.7267 157.893 26.5901 157.893 26.4399V16.4996ZM161.279 25.6889C163.737 25.6889 165.525 23.9275 165.525 21.4561C165.525 18.9847 163.737 17.237 161.279 17.237H159.026V25.6889H161.279Z" fill="black"/>
<path d="M169.703 16.4996C169.703 16.3494 169.84 16.2129 169.99 16.2129H170.591C170.741 16.2129 170.878 16.3494 170.878 16.4996V26.4399C170.878 26.5901 170.741 26.7267 170.591 26.7267H169.99C169.84 26.7267 169.703 26.5901 169.703 26.4399V16.4996Z" fill="black"/>
<path d="M179.165 16.0625C182.169 16.0625 184.572 18.4793 184.572 21.4832C184.572 24.4872 182.169 26.8766 179.165 26.8766C176.161 26.8766 173.771 24.4872 173.771 21.4832C173.771 18.4793 176.161 16.0625 179.165 16.0625ZM179.165 25.8253C181.554 25.8253 183.521 23.8727 183.521 21.4832C183.521 19.0937 181.554 17.1139 179.165 17.1139C176.775 17.1139 174.823 19.0937 174.823 21.4832C174.823 23.8727 176.775 25.8253 179.165 25.8253Z" fill="black"/>
<path d="M185.993 16.5952C185.897 16.404 186.02 16.1992 186.252 16.1992H186.853C186.99 16.1992 187.085 16.2948 187.113 16.3631L190.854 24.7741H190.908L194.65 16.3631C194.677 16.2812 194.786 16.1992 194.909 16.1992H195.51C195.742 16.1992 195.851 16.3904 195.769 16.5952L191.209 26.6993C191.168 26.7949 191.072 26.8632 190.949 26.8632H190.799C190.69 26.8632 190.594 26.7949 190.54 26.6993L186.007 16.5952H185.993Z" fill="black"/>
<path d="M195.947 26.3305L200.507 16.2263C200.548 16.1308 200.63 16.0625 200.767 16.0625H200.917C201.054 16.0625 201.122 16.1308 201.177 16.2263L205.71 26.3305C205.805 26.5216 205.682 26.7265 205.45 26.7265H204.85C204.713 26.7265 204.617 26.6309 204.59 26.5626L203.484 24.0912H198.145L197.053 26.5626C197.026 26.6445 196.93 26.7265 196.793 26.7265H196.193C195.961 26.7265 195.851 26.5353 195.933 26.3305H195.947ZM203.074 23.149C202.337 21.5105 201.613 19.8584 200.876 18.2199H200.753L198.555 23.149H203.061H203.074Z" fill="black"/>
<path d="M207.266 25.1426C207.334 25.047 207.416 24.9514 207.498 24.8558C207.649 24.6647 207.812 24.5418 208.017 24.7193C208.126 24.8149 209.219 25.8662 210.557 25.8662C211.772 25.8662 212.564 25.1016 212.564 24.2141C212.564 23.1763 211.663 22.5619 209.929 21.8382C208.277 21.1146 207.28 20.4455 207.28 18.7251C207.28 17.701 208.085 16.0488 210.475 16.0488C211.95 16.0488 213.042 16.8135 213.042 16.8135C213.138 16.8544 213.315 17.0456 213.138 17.3187C213.083 17.4143 213.015 17.5098 212.96 17.6054C212.824 17.8102 212.673 17.8785 212.441 17.742C212.332 17.6873 211.39 17.0456 210.475 17.0456C208.877 17.0456 208.4 18.0697 208.4 18.6978C208.4 19.7082 209.164 20.2953 210.434 20.8142C212.468 21.6334 213.766 22.4117 213.766 24.1458C213.766 25.7024 212.277 26.8493 210.516 26.8493C208.755 26.8493 207.539 25.8116 207.348 25.6341C207.225 25.5249 207.075 25.402 207.253 25.1289L207.266 25.1426Z" fill="black"/>
<path d="M221.207 16.0625C222.723 16.0625 223.829 16.5813 224.839 17.4552C224.962 17.5781 224.976 17.7556 224.853 17.8785L224.443 18.2881C224.32 18.4383 224.198 18.4247 224.047 18.2745C223.269 17.5918 222.204 17.1412 221.18 17.1412C218.804 17.1412 216.988 19.1347 216.988 21.4696C216.988 23.8044 218.804 25.7843 221.18 25.7843C222.491 25.7843 223.255 25.2518 224.047 24.651C224.198 24.5281 224.32 24.5418 224.402 24.61L224.853 25.0197C224.976 25.1152 224.949 25.3201 224.839 25.4293C223.815 26.4261 222.532 26.8903 221.194 26.8903C218.19 26.8903 215.773 24.5008 215.773 21.4969C215.773 18.4929 218.19 16.0761 221.194 16.0761L221.207 16.0625Z" fill="black"/>
<path d="M227.638 16.4996C227.638 16.3494 227.775 16.2129 227.925 16.2129H228.499C228.662 16.2129 228.785 16.3494 228.785 16.4996V22.7669C228.785 24.4737 229.85 25.8118 231.612 25.8118C233.373 25.8118 234.466 24.501 234.466 22.7942V16.4996C234.466 16.3494 234.588 16.2129 234.752 16.2129H235.326C235.476 16.2129 235.613 16.3494 235.613 16.4996V22.8488C235.613 25.1291 233.988 26.8769 231.612 26.8769C229.236 26.8769 227.652 25.1291 227.652 22.8488V16.4996H227.638Z" fill="black"/>
<path d="M239.122 16.4996C239.122 16.3494 239.245 16.2129 239.408 16.2129H239.996C240.146 16.2129 240.282 16.3494 240.282 16.4996V25.7162H244.611C244.775 25.7162 244.897 25.8528 244.897 26.003V26.4399C244.897 26.5901 244.775 26.7267 244.611 26.7267H239.408C239.245 26.7267 239.122 26.5901 239.122 26.4399V16.4996Z" fill="black"/>
<path d="M246.126 26.3305L250.686 16.2263C250.727 16.1308 250.809 16.0625 250.945 16.0625H251.095C251.232 16.0625 251.301 16.1308 251.356 16.2263L255.889 26.3305C255.985 26.5216 255.862 26.7265 255.63 26.7265H255.029C254.892 26.7265 254.796 26.6309 254.768 26.5626L253.662 24.0912H248.324L247.231 26.5626C247.204 26.6445 247.109 26.7265 246.973 26.7265H246.371C246.139 26.7265 246.031 26.5353 246.113 26.3305H246.126ZM253.266 23.149C252.529 21.5105 251.806 19.8584 251.069 18.2199H250.945L248.748 23.149H253.253H253.266Z" fill="black"/>
<path d="M258.128 16.4996C258.128 16.3494 258.251 16.2129 258.415 16.2129H262.307C264.109 16.2129 265.584 17.6193 265.584 19.408C265.584 20.7871 264.669 21.9477 263.358 22.4665L265.42 26.2761C265.529 26.4672 265.42 26.713 265.16 26.713H264.396C264.259 26.713 264.191 26.6311 264.15 26.5765L262.156 22.5894H259.289V26.4263C259.289 26.5765 259.152 26.713 259.002 26.713H258.415C258.251 26.713 258.128 26.5765 258.128 26.4263V16.486V16.4996ZM262.225 21.62C263.385 21.62 264.382 20.6642 264.382 19.4216C264.382 18.2747 263.372 17.3052 262.225 17.3052H259.316V21.62H262.225Z" fill="black"/>
<path d="M124.139 43.2485L128.7 33.1443C128.741 33.0488 128.823 32.9805 128.959 32.9805H129.109C129.246 32.9805 129.314 33.0488 129.369 33.1443L133.901 43.2485C133.997 43.4396 133.875 43.6445 133.643 43.6445H133.042C132.905 43.6445 132.81 43.5489 132.782 43.4806L131.676 40.9955H126.338L125.245 43.4806C125.218 43.5625 125.122 43.6445 124.986 43.6445H124.385C124.153 43.6445 124.044 43.4533 124.126 43.2485H124.139ZM131.28 40.0671C130.543 38.4285 129.819 36.7764 129.082 35.1379H128.959L126.761 40.0671H131.267H131.28Z" fill="black"/>
<path d="M135.458 42.0742C135.526 41.9786 135.608 41.8831 135.69 41.7875C135.84 41.5963 136.004 41.4734 136.209 41.6509C136.318 41.7465 137.41 42.7979 138.748 42.7979C139.964 42.7979 140.755 42.0333 140.755 41.1457C140.755 40.108 139.854 39.4936 138.12 38.7699C136.468 38.0462 135.471 37.3772 135.471 35.6567C135.471 34.6327 136.277 32.9805 138.666 32.9805C140.141 32.9805 141.233 33.7451 141.233 33.7451C141.329 33.7861 141.506 33.9773 141.329 34.2503C141.274 34.3459 141.206 34.4415 141.151 34.5371C141.015 34.7419 140.865 34.8102 140.633 34.6736C140.523 34.619 139.581 33.9773 138.666 33.9773C137.069 33.9773 136.591 35.0013 136.591 35.6294C136.591 36.6398 137.356 37.227 138.625 37.7458C140.66 38.5651 141.957 39.3434 141.957 41.0775C141.957 42.634 140.469 43.781 138.707 43.781C136.946 43.781 135.731 42.7433 135.54 42.5658C135.417 42.4565 135.266 42.3337 135.444 42.0606L135.458 42.0742Z" fill="black"/>
<path d="M144.074 42.0742C144.143 41.9786 144.225 41.8831 144.307 41.7875C144.457 41.5963 144.621 41.4734 144.825 41.6509C144.935 41.7465 146.027 42.7979 147.365 42.7979C148.58 42.7979 149.372 42.0333 149.372 41.1457C149.372 40.108 148.471 39.4936 146.737 38.7699C145.085 38.0462 144.088 37.3772 144.088 35.6567C144.088 34.6327 144.894 32.9805 147.283 32.9805C148.758 32.9805 149.85 33.7451 149.85 33.7451C149.946 33.7861 150.123 33.9773 149.946 34.2503C149.891 34.3459 149.823 34.4415 149.768 34.5371C149.632 34.7419 149.482 34.8102 149.249 34.6736C149.14 34.619 148.198 33.9773 147.283 33.9773C145.686 33.9773 145.208 35.0013 145.208 35.6294C145.208 36.6398 145.972 37.227 147.242 37.7458C149.277 38.5651 150.574 39.3434 150.574 41.0775C150.574 42.634 149.086 43.781 147.324 43.781C145.563 43.781 144.348 42.7433 144.156 42.5658C144.033 42.4565 143.883 42.3337 144.061 42.0606L144.074 42.0742Z" fill="black"/>
<path d="M157.632 32.9805C160.636 32.9805 163.039 35.3973 163.039 38.4012C163.039 41.4052 160.636 43.7947 157.632 43.7947C154.628 43.7947 152.24 41.4052 152.24 38.4012C152.24 35.3973 154.628 32.9805 157.632 32.9805ZM157.632 42.7433C160.022 42.7433 161.988 40.7907 161.988 38.4012C161.988 36.0117 160.022 34.0319 157.632 34.0319C155.243 34.0319 153.29 36.0117 153.29 38.4012C153.29 40.7907 155.243 42.7433 157.632 42.7433Z" fill="black"/>
<path d="M170.291 32.9805C171.806 32.9805 172.912 33.4994 173.923 34.3732C174.045 34.4961 174.059 34.6736 173.936 34.7965L173.527 35.2061C173.404 35.3563 173.281 35.3427 173.131 35.1925C172.352 34.5098 171.287 34.0592 170.263 34.0592C167.887 34.0592 166.071 36.0527 166.071 38.3876C166.071 40.7225 167.887 42.7023 170.263 42.7023C171.574 42.7023 172.339 42.1698 173.131 41.569C173.281 41.4461 173.404 41.4598 173.486 41.5281L173.936 41.9377C174.059 42.0333 174.032 42.2381 173.923 42.3473C172.898 43.3441 171.615 43.8083 170.277 43.8083C167.273 43.8083 164.856 41.4188 164.856 38.4149C164.856 35.411 167.273 32.9941 170.277 32.9941L170.291 32.9805Z" fill="black"/>
<path d="M176.858 33.4176C176.858 33.2674 176.995 33.1309 177.145 33.1309H177.746C177.896 33.1309 178.033 33.2674 178.033 33.4176V43.3579C178.033 43.5081 177.896 43.6447 177.746 43.6447H177.145C176.995 43.6447 176.858 43.5081 176.858 43.3579V33.4176Z" fill="black"/>
<path d="M180.258 43.2485L184.819 33.1443C184.86 33.0488 184.942 32.9805 185.078 32.9805H185.228C185.365 32.9805 185.433 33.0488 185.488 33.1443L190.021 43.2485C190.117 43.4396 189.994 43.6445 189.762 43.6445H189.161C189.024 43.6445 188.929 43.5489 188.901 43.4806L187.795 40.9955H182.456L181.364 43.4806C181.337 43.5625 181.241 43.6445 181.105 43.6445H180.504C180.272 43.6445 180.163 43.4533 180.245 43.2485H180.258ZM187.386 40.0671C186.648 38.4285 185.925 36.7764 185.187 35.1379H185.064L182.866 40.0671H187.372H187.386Z" fill="black"/>
<path d="M193.147 34.1413H190.539C190.375 34.1413 190.253 34.0048 190.253 33.8546V33.4176C190.253 33.2674 190.375 33.1309 190.539 33.1309H196.915C197.079 33.1309 197.202 33.2674 197.202 33.4176V33.8546C197.202 34.0048 197.079 34.1413 196.915 34.1413H194.307V43.3579C194.307 43.5081 194.171 43.6447 194.021 43.6447H193.447C193.297 43.6447 193.16 43.5081 193.16 43.3579V34.1413H193.147Z" fill="black"/>
<path d="M199.442 33.4176C199.442 33.2674 199.565 33.1309 199.729 33.1309H205.641C205.805 33.1309 205.928 33.2674 205.928 33.4176V33.8546C205.928 34.0048 205.805 34.1413 205.641 34.1413H200.589V37.8006H204.904C205.054 37.8006 205.191 37.9372 205.191 38.0874V38.5243C205.191 38.6882 205.054 38.8111 204.904 38.8111H200.589V42.6479H205.641C205.805 42.6479 205.928 42.7844 205.928 42.9346V43.3716C205.928 43.5218 205.805 43.6583 205.641 43.6583H199.729C199.565 43.6583 199.442 43.5218 199.442 43.3716V33.4313V33.4176Z" fill="black"/>
<path d="M208.262 42.0742C208.33 41.9786 208.412 41.8831 208.494 41.7875C208.644 41.5963 208.808 41.4734 209.013 41.6509C209.122 41.7465 210.215 42.7979 211.553 42.7979C212.768 42.7979 213.56 42.0333 213.56 41.1457C213.56 40.108 212.659 39.4936 210.925 38.7699C209.272 38.0462 208.276 37.3772 208.276 35.6567C208.276 34.6327 209.081 32.9805 211.471 32.9805C212.945 32.9805 214.038 33.7451 214.038 33.7451C214.133 33.7861 214.311 33.9773 214.133 34.2503C214.079 34.3459 214.01 34.4415 213.956 34.5371C213.819 34.7419 213.669 34.8102 213.437 34.6736C213.328 34.619 212.386 33.9773 211.471 33.9773C209.873 33.9773 209.395 35.0013 209.395 35.6294C209.395 36.6398 210.16 37.227 211.43 37.7458C213.464 38.5651 214.761 39.3434 214.761 41.0775C214.761 42.634 213.273 43.781 211.512 43.781C209.75 43.781 208.535 42.7433 208.344 42.5658C208.221 42.4565 208.071 42.3337 208.248 42.0606L208.262 42.0742Z" fill="black"/>
<path d="M100.025 0.360352H11.3273C5.36042 0.360352 0.499512 5.22126 0.499512 11.1882V48.5326C0.499512 54.4995 5.36042 59.3604 11.3273 59.3604H100.025C105.993 59.3604 110.854 54.4995 110.854 48.5326V11.1882C110.854 5.22126 105.993 0.360352 100.025 0.360352ZM110.116 48.5326C110.116 54.1035 105.583 58.6231 100.025 58.6231H11.3273C5.75639 58.6231 1.23684 54.0899 1.23684 48.5326V11.1882C1.23684 5.61724 5.75639 1.09768 11.3273 1.09768H100.025C105.597 1.09768 110.116 5.63089 110.116 11.1882V48.5326Z" fill="#A38457"/>
<path d="M95.0279 15.8307H91.2183C91.1228 15.8307 91.0545 15.8989 91.0545 15.9945V29.1845H70.0406C69.8358 29.1845 69.6719 29.3484 69.6719 29.5532C69.6719 29.758 69.8358 29.9218 70.0406 29.9218H70.9554C70.9554 32.325 70.9554 39.2887 70.9554 41.6781C70.9554 41.9103 70.9281 42.156 70.9827 42.3745C71.0374 42.6203 70.9008 42.7159 70.655 42.7978C69.9723 43.0299 69.235 43.0845 68.525 43.1118C67.2961 43.1528 66.0672 43.2074 64.8383 43.0436C63.4183 42.8661 62.0938 42.4974 60.8649 41.9239C58.2433 40.7087 56.4546 38.8927 55.1984 36.6943C54.2973 35.1241 53.7101 33.4583 53.4097 31.7379C53.2732 30.9732 53.1093 30.2086 53.0957 29.4303C53.0957 28.5428 53.0957 27.6552 53.1093 26.7541C53.164 25.1292 53.4097 23.5453 54.0105 22.0024C54.6386 20.3639 55.6354 18.9165 57.2193 17.7559C58.7622 16.6363 60.5919 16.0628 62.5854 15.8307C64.9885 15.5576 68.2246 16.1037 70.8325 17.5238C71.8566 18.0836 73.9048 19.6402 74.6284 20.951C74.6284 20.951 74.6421 20.992 74.6557 20.9647C74.7377 20.8145 75.6662 18.1246 75.6662 18.1246C75.6662 18.1246 72.2116 15.8443 67.3234 15.2708C65.2206 15.0251 63.1316 14.9841 61.0698 15.4074C57.902 16.0628 55.3486 17.5101 53.2595 19.531C51.5391 21.1968 50.3375 23.1084 49.6002 25.1975C48.8492 27.3412 48.5488 29.5259 48.9311 31.7379C49.1633 33.1579 49.5729 34.5506 50.2419 35.8751C50.9793 37.3361 51.9624 38.6879 53.2186 39.9031C54.9936 41.6235 57.1237 42.9343 59.7043 43.7536C61.9163 44.45 64.1829 44.7094 66.5451 44.4227C69.4535 44.054 72.116 43.1938 74.5875 41.883C75.079 41.6235 75.2702 41.3231 75.2565 40.8452C75.2292 39.5071 75.2565 38.1827 75.2565 36.8445C75.2565 35.7659 75.2565 31.6559 75.2565 29.8945H91.0955V43.7946C91.0955 43.8901 91.1637 43.9584 91.2593 43.9584H95.0688C95.1644 43.9584 95.2327 43.8901 95.2327 43.7946V15.9945C95.2327 15.8989 95.1644 15.8307 95.0688 15.8307H95.0279Z" fill="#A38457"/>
<path d="M46.1866 15.8038C45.9818 15.8038 45.6132 15.8038 45.381 15.8038C45.1216 15.8038 44.9851 16.1042 44.9031 16.2407C43.0871 19.5314 41.2848 22.8357 39.4824 26.1264C37.6391 29.4853 35.8094 32.8579 33.9661 36.2169C33.3107 37.4048 32.6553 38.6064 31.9999 39.7943C31.9589 39.8625 31.9453 39.9718 31.8224 39.9718C31.7131 39.9718 31.6722 39.8762 31.6312 39.8079C31.481 39.5758 31.3445 39.3437 31.2079 39.1116C29.0369 35.3566 26.8659 31.6154 24.6812 27.8605C23.5069 25.8396 22.3327 23.8325 21.1584 21.8116C20.0797 19.9683 18.9874 18.125 17.9497 16.268C17.7175 15.8447 17.6902 15.7764 17.226 15.7764H16.4067V21.8389C16.4067 21.9618 16.434 22.0711 16.4887 22.1803C16.6525 22.4807 17.0075 23.1224 17.3352 23.6003C17.4991 23.8734 17.6766 24.1328 17.8404 24.4059C20.1753 28.352 22.4965 32.2981 24.8314 36.2442C26.2651 38.661 27.6988 41.0778 29.1052 43.5219C29.3236 43.9042 29.5694 44.0134 30.061 44.0134C30.4843 44.0134 30.7027 43.8905 30.8802 43.5765C32.1774 41.1733 33.4745 38.7702 34.7853 36.3807C37.1339 32.066 39.4961 27.7512 41.8446 23.4501C41.8992 23.3546 41.9948 23.177 42.0631 23.1907C42.145 23.1907 42.1313 23.3955 42.1313 23.4911C42.1313 29.7311 42.1313 42.293 42.1313 43.8359C42.1313 43.9315 42.1996 43.9861 42.2952 43.9861H46.1593C46.2549 43.9861 46.3232 43.9179 46.3232 43.8223C46.3232 42.0199 46.3232 25.6621 46.3232 17.5515C46.3232 17.1555 46.3232 16.3226 46.3232 15.9676C46.3232 15.872 46.2549 15.8038 46.1593 15.8038H46.1866Z" fill="#A38457"/>
<path d="M18.373 39.5615C17.1441 39.5615 16.1473 40.5583 16.1473 41.7872C16.1473 43.0161 17.1441 44.0128 18.373 44.0128C19.6019 44.0128 20.5986 43.0161 20.5986 41.7872C20.5986 40.5583 19.6019 39.5615 18.373 39.5615Z" fill="#A38457"/>
</g>
</g>
<defs>
<clipPath id="clip0_1_884">
<rect width="266" height="59" fill="white" transform="translate(0.499512 0.360352)"/>
</clipPath>
</defs>
</svg>
